<svg xmlns="http://www.w3.org/2000/svg" xmlns:xlink="http://www.w3.org/1999/xlink" width="500" zoomAndPan="magnify" viewBox="0 0 375 374.999991" height="500" preserveAspectRatio="xMidYMid meet" version="1.0"><defs><filter x="0%" y="0%" width="100%" height="100%" id="5dbf4afefa"><feColorMatrix values="0 0 0 0 1 0 0 0 0 1 0 0 0 0 1 0 0 0 1 0" color-interpolation-filters="sRGB"/></filter><g/><mask id="1651a77554"><g filter="url(#5dbf4afefa)"><rect x="-37.5" width="450" fill="#000000" y="-37.499999" height="449.999989" fill-opacity="0.7"/></g></mask><clipPath id="89f1ee1f6a"><path d="M 1.046875 0.199219 L 102.640625 0.199219 L 102.640625 103.878906 L 1.046875 103.878906 Z M 1.046875 0.199219 " clip-rule="nonzero"/></clipPath><clipPath id="aab01f85fb"><rect x="0" width="103" y="0" height="104"/></clipPath><mask id="0450bb23ab"><g filter="url(#5dbf4afefa)"><rect x="-37.5" width="450" fill="#000000" y="-37.499999" height="449.999989" fill-opacity="0.7"/></g></mask><clipPath id="8d26abecec"><rect x="0" width="140" y="0" height="93"/></clipPath><mask id="2f031b6824"><g filter="url(#5dbf4afefa)"><rect x="-37.5" width="450" fill="#000000" y="-37.499999" height="449.999989" fill-opacity="0.7"/></g></mask><clipPath id="5d942e9361"><path d="M 0.0390625 11 L 21 11 L 21 62 L 0.0390625 62 Z M 0.0390625 11 " clip-rule="nonzero"/></clipPath><clipPath id="383f3749f8"><rect x="0" width="132" y="0" height="65"/></clipPath><mask id="e862e83313"><g filter="url(#5dbf4afefa)"><rect x="-37.5" width="450" fill="#000000" y="-37.499999" height="449.999989" fill-opacity="0.63"/></g></mask><clipPath id="90e289de0d"><rect x="0" width="91" y="0" height="9"/></clipPath></defs><g mask="url(#1651a77554)"><g transform="matrix(1, 0, 0, 1, 194, 133)"><g clip-path="url(#aab01f85fb)"><g clip-path="url(#89f1ee1f6a)"><path fill="#5ce1e6" d="M 43.796875 0.785156 C 43.976562 0.078125 46.136719 0.0234375 48.621094 0.660156 C 51.109375 1.300781 52.976562 2.390625 52.792969 3.097656 C 52.613281 3.804688 50.453125 3.859375 47.964844 3.222656 C 45.480469 2.582031 43.613281 1.492188 43.796875 0.785156 Z M 23.480469 4.140625 C 23.355469 3.539062 25.097656 2.667969 27.375 2.183594 C 29.652344 1.707031 31.601562 1.804688 31.722656 2.402344 C 31.851562 3 30.105469 3.875 27.832031 4.355469 C 25.554688 4.832031 23.609375 4.738281 23.480469 4.140625 Z M 86.671875 28.289062 C 80.679688 26.878906 74.796875 22.574219 73.414062 16.242188 C 73.15625 15.074219 73.351562 12.941406 72.761719 11.78125 C 71.574219 9.453125 69.730469 7.898438 67.234375 7.121094 C 64.757812 6.351562 61.183594 6.765625 59.933594 9.332031 C 58.230469 12.839844 61.332031 16.371094 64.273438 17.757812 C 64.746094 17.988281 65.691406 18.253906 67.101562 18.5625 C 73.046875 19.863281 79.484375 24.730469 80.179688 31.195312 C 80.347656 32.738281 80.429688 33.515625 80.433594 33.523438 C 81.378906 37.996094 86.332031 40.945312 90.738281 39.75 C 94.316406 38.78125 94.910156 34.816406 92.972656 32.074219 C 92.085938 30.820312 90.980469 29.855469 89.660156 29.191406 C 89.160156 28.941406 88.167969 28.640625 86.671875 28.289062 Z M 72.914062 9.96875 C 73.328125 9.34375 75.351562 9.957031 77.433594 11.335938 C 79.515625 12.722656 80.867188 14.351562 80.449219 14.972656 C 80.03125 15.601562 78.011719 14.984375 75.929688 13.605469 C 73.847656 12.222656 72.496094 10.59375 72.914062 9.96875 Z M 61.21875 26.332031 C 56.671875 25.78125 51.363281 21.683594 54.289062 16.515625 C 54.652344 15.871094 54.859375 15.375 54.910156 15.011719 C 55.117188 13.542969 54.519531 12.492188 53.121094 11.851562 C 51.25 10.996094 49.160156 10.792969 46.859375 11.238281 C 44.464844 11.703125 41.488281 12.996094 40.699219 15.386719 C 39.824219 18.023438 42.710938 19.503906 45.035156 19.761719 C 50.398438 20.347656 57.066406 23.144531 53.886719 29.882812 C 53.5 30.703125 53.300781 31.339844 53.292969 31.789062 C 53.269531 32.886719 53.769531 33.738281 54.789062 34.339844 C 58.230469 36.359375 63.671875 35.402344 66.492188 32.679688 C 68.519531 30.71875 67.859375 28.121094 65.222656 27.109375 C 63.992188 26.636719 62.53125 26.488281 61.21875 26.332031 Z M 25.445312 18.371094 C 26.117188 16.613281 28.574219 15.921875 30.9375 16.820312 C 33.300781 17.722656 34.667969 19.878906 33.996094 21.636719 C 33.328125 23.394531 30.871094 24.089844 28.507812 23.1875 C 26.144531 22.285156 24.773438 20.128906 25.445312 18.371094 Z M 97.445312 35.097656 C 96.773438 35.445312 95.304688 33.949219 94.167969 31.753906 C 93.027344 29.558594 92.652344 27.496094 93.324219 27.148438 C 94 26.800781 95.464844 28.296875 96.601562 30.492188 C 97.742188 32.6875 98.121094 34.746094 97.445312 35.097656 Z M 74.351562 46.625 C 71.894531 47.429688 69.199219 45.945312 68.332031 43.308594 C 67.46875 40.671875 68.757812 37.878906 71.214844 37.070312 C 73.671875 36.265625 76.363281 37.746094 77.234375 40.386719 C 78.097656 43.023438 76.808594 45.816406 74.351562 46.625 Z M 16.175781 66.378906 C 15.050781 71.441406 19.429688 75.277344 24.398438 74.398438 C 27.542969 73.847656 29.605469 71.722656 30.941406 68.84375 C 34.011719 62.210938 41.632812 57.871094 48.878906 59.539062 C 52.566406 60.386719 55.550781 61.554688 57.835938 64.480469 C 60.507812 67.90625 61.28125 71.859375 60.152344 76.339844 C 59.851562 77.542969 59.007812 79.253906 58.753906 80.59375 C 58.046875 84.386719 60.152344 87.753906 63.882812 88.546875 C 67.179688 89.253906 70.554688 87.742188 72.433594 84.984375 C 74.671875 81.703125 74.203125 77.335938 70.765625 75.089844 C 69.765625 74.445312 67.851562 73.953125 66.71875 73.347656 C 60.628906 70.097656 58.480469 62.761719 60.9375 56.507812 C 61.449219 55.199219 61.746094 54.308594 61.828125 53.832031 C 62.546875 49.660156 59.96875 46.296875 55.859375 45.8125 C 51.753906 45.335938 48.613281 47.480469 46.867188 51.246094 C 43.714844 58.023438 36.585938 61.980469 29.175781 60.882812 C 27.710938 60.664062 25.945312 59.839844 24.335938 59.859375 C 20.472656 59.902344 17.023438 62.5625 16.175781 66.378906 Z M 86.242188 52.871094 C 85.066406 52.328125 84.089844 51.539062 83.308594 50.503906 C 82.382812 49.273438 81.484375 47.773438 80.28125 47.171875 C 78.042969 46.058594 76.167969 47.984375 75.523438 50.164062 C 74.773438 52.707031 74.84375 55.191406 75.738281 57.609375 C 75.890625 58.019531 76.40625 58.996094 77.285156 60.535156 C 80.605469 66.355469 81.398438 74.101562 78.675781 80.363281 C 78.164062 81.542969 77.851562 82.382812 77.75 82.882812 C 77.234375 85.378906 77.5 87.820312 78.558594 90.214844 C 79.324219 91.949219 81.339844 94.117188 83.359375 93.34375 C 86.828125 92.023438 86.535156 85.832031 85.617188 83.140625 C 85.453125 82.652344 84.9375 81.648438 84.066406 80.128906 C 80.269531 73.472656 79.746094 65.144531 83.675781 58.238281 C 85.675781 54.722656 89.683594 53.636719 92.871094 56.460938 C 93.933594 57.40625 94.863281 58.46875 95.660156 59.652344 C 97.46875 62.34375 100.640625 62.027344 101.808594 58.988281 C 103.046875 55.757812 102.671875 51.535156 100.628906 48.707031 C 99.445312 47.070312 97.46875 45.972656 95.734375 47.527344 C 95.464844 47.765625 95.027344 48.410156 94.421875 49.457031 C 92.605469 52.585938 89.941406 54.5625 86.242188 52.871094 Z M 6.304688 80.1875 C 3.492188 80.316406 1.097656 77.847656 0.953125 74.671875 C 0.8125 71.496094 2.972656 68.816406 5.78125 68.691406 C 8.59375 68.5625 10.988281 71.03125 11.128906 74.207031 C 11.273438 77.382812 9.113281 80.0625 6.304688 80.1875 Z M 93.648438 78.363281 C 92.992188 78.089844 93.289062 75.890625 94.316406 73.457031 C 95.34375 71.027344 96.710938 69.28125 97.367188 69.558594 C 98.023438 69.835938 97.722656 72.035156 96.695312 74.464844 C 95.667969 76.898438 94.304688 78.640625 93.648438 78.363281 Z M 37.160156 82.09375 C 37.695312 79.507812 40.546875 77.910156 43.523438 78.527344 C 46.503906 79.148438 48.480469 81.742188 47.945312 84.328125 C 47.410156 86.914062 44.5625 88.511719 41.582031 87.894531 C 38.605469 87.277344 36.625 84.679688 37.160156 82.09375 Z M 66.953125 98.808594 C 65.578125 97.789062 65.597656 95.425781 67.003906 93.53125 C 68.40625 91.632812 70.660156 90.917969 72.039062 91.941406 C 73.414062 92.957031 73.390625 95.320312 71.988281 97.21875 C 70.585938 99.113281 68.332031 99.828125 66.953125 98.808594 Z M 75.484375 103.585938 C 75.007812 103.0625 76.089844 101.304688 77.902344 99.660156 C 79.710938 98.019531 81.5625 97.117188 82.042969 97.640625 C 82.519531 98.167969 81.4375 99.925781 79.628906 101.566406 C 77.816406 103.207031 75.960938 104.113281 75.484375 103.585938 Z M 75.484375 103.585938 " fill-opacity="1" fill-rule="evenodd"/></g></g></g></g><g mask="url(#0450bb23ab)"><g transform="matrix(1, 0, 0, 1, 76, 150)"><g clip-path="url(#8d26abecec)"><g fill="#000000" fill-opacity="1"><g transform="translate(1.944306, 18.40634)"><g><path d="M 13.59375 0 L 9.734375 0 L 4.875 -8.515625 L 4.875 0 L 1.21875 0 L 1.21875 -14.203125 L 5.078125 -14.203125 L 9.9375 -5.671875 L 9.9375 -14.203125 L 13.59375 -14.203125 Z M 13.59375 0 "/></g></g></g><g fill="#000000" fill-opacity="1"><g transform="translate(17.050828, 18.40634)"><g><path d="M 5.171875 -8.421875 C 4.628906 -8.421875 4.359375 -8.148438 4.359375 -7.609375 L 4.359375 -6.484375 L 7.8125 -6.484375 L 7.8125 -7.609375 C 7.8125 -8.148438 7.539062 -8.421875 7 -8.421875 Z M 10.953125 -0.203125 C 8.335938 0.0664062 5.972656 0.203125 3.859375 0.203125 C 2.929688 0.203125 2.191406 -0.0703125 1.640625 -0.625 C 1.085938 -1.175781 0.8125 -1.914062 0.8125 -2.84375 L 0.8125 -7.703125 C 0.8125 -8.722656 1.097656 -9.519531 1.671875 -10.09375 C 2.242188 -10.664062 3.039062 -10.953125 4.0625 -10.953125 L 8.109375 -10.953125 C 9.128906 -10.953125 9.925781 -10.664062 10.5 -10.09375 C 11.070312 -9.519531 11.359375 -8.722656 11.359375 -7.703125 L 11.359375 -3.953125 L 4.359375 -3.953125 L 4.359375 -3.140625 C 4.359375 -2.941406 4.425781 -2.773438 4.5625 -2.640625 C 4.695312 -2.503906 4.867188 -2.4375 5.078125 -2.4375 C 6.410156 -2.4375 8.367188 -2.535156 10.953125 -2.734375 Z M 10.953125 -0.203125 "/></g></g></g><g fill="#000000" fill-opacity="1"><g transform="translate(29.521343, 18.40634)"><g><path d="M 7.296875 -10.75 L 11.25 -10.75 L 8.015625 -5.375 L 11.359375 0 L 7.40625 0 L 5.578125 -3.25 L 3.75 0 L -0.203125 0 L 3.140625 -5.375 L -0.09375 -10.75 L 3.859375 -10.75 L 5.578125 -7.5 Z M 7.296875 -10.75 "/></g></g></g><g fill="#000000" fill-opacity="1"><g transform="translate(40.978018, 18.40634)"><g><path d="M 8.515625 0 C 7.203125 0.132812 5.921875 0.203125 4.671875 0.203125 C 3.742188 0.203125 3.003906 -0.0703125 2.453125 -0.625 C 1.898438 -1.175781 1.625 -1.914062 1.625 -2.84375 L 1.625 -8.015625 L 0.40625 -8.015625 L 0.40625 -10.75 L 1.625 -10.75 L 2.03125 -13.1875 L 5.171875 -13.1875 L 5.171875 -10.75 L 7.703125 -10.75 L 7.703125 -8.015625 L 5.171875 -8.015625 L 5.171875 -3.34375 C 5.171875 -3.144531 5.238281 -2.976562 5.375 -2.84375 C 5.507812 -2.707031 5.675781 -2.640625 5.875 -2.640625 L 8.515625 -2.640625 Z M 8.515625 0 "/></g></g></g><g fill="#000000" fill-opacity="1"><g transform="translate(1.944306, 40.79689)"><g><path d="M 13.390625 -0.296875 C 10.222656 0.0351562 7.316406 0.203125 4.671875 0.203125 C 3.335938 0.203125 2.359375 -0.101562 1.734375 -0.71875 C 1.117188 -1.34375 0.8125 -2.320312 0.8125 -3.65625 L 0.8125 -10.140625 C 0.8125 -11.554688 1.128906 -12.585938 1.765625 -13.234375 C 2.410156 -13.878906 3.445312 -14.203125 4.875 -14.203125 L 12.171875 -14.203125 L 12.171875 -11.359375 L 5.671875 -11.359375 C 4.867188 -11.359375 4.46875 -10.953125 4.46875 -10.140625 L 4.46875 -3.65625 C 4.46875 -3.34375 4.554688 -3.09375 4.734375 -2.90625 C 4.921875 -2.726562 5.164062 -2.640625 5.46875 -2.640625 C 7.03125 -2.640625 8.453125 -2.671875 9.734375 -2.734375 L 9.734375 -5.671875 L 7.09375 -5.671875 L 7.09375 -8.109375 L 13.390625 -8.109375 Z M 13.390625 -0.296875 "/></g></g></g><g fill="#000000" fill-opacity="1"><g transform="translate(16.442516, 40.79689)"><g><path d="M 5.171875 -8.421875 C 4.628906 -8.421875 4.359375 -8.148438 4.359375 -7.609375 L 4.359375 -6.484375 L 7.8125 -6.484375 L 7.8125 -7.609375 C 7.8125 -8.148438 7.539062 -8.421875 7 -8.421875 Z M 10.953125 -0.203125 C 8.335938 0.0664062 5.972656 0.203125 3.859375 0.203125 C 2.929688 0.203125 2.191406 -0.0703125 1.640625 -0.625 C 1.085938 -1.175781 0.8125 -1.914062 0.8125 -2.84375 L 0.8125 -7.703125 C 0.8125 -8.722656 1.097656 -9.519531 1.671875 -10.09375 C 2.242188 -10.664062 3.039062 -10.953125 4.0625 -10.953125 L 8.109375 -10.953125 C 9.128906 -10.953125 9.925781 -10.664062 10.5 -10.09375 C 11.070312 -9.519531 11.359375 -8.722656 11.359375 -7.703125 L 11.359375 -3.953125 L 4.359375 -3.953125 L 4.359375 -3.140625 C 4.359375 -2.941406 4.425781 -2.773438 4.5625 -2.640625 C 4.695312 -2.503906 4.867188 -2.4375 5.078125 -2.4375 C 6.410156 -2.4375 8.367188 -2.535156 10.953125 -2.734375 Z M 10.953125 -0.203125 "/></g></g></g><g fill="#000000" fill-opacity="1"><g transform="translate(28.913032, 40.79689)"><g><path d="M 7 -8.015625 C 6.28125 -8.015625 5.46875 -7.878906 4.5625 -7.609375 L 4.5625 0 L 1.015625 0 L 1.015625 -10.75 L 4.15625 -10.75 L 4.359375 -9.734375 C 4.992188 -10.148438 5.644531 -10.457031 6.3125 -10.65625 C 6.988281 -10.851562 7.554688 -10.953125 8.015625 -10.953125 L 8.921875 -10.953125 C 9.835938 -10.953125 10.570312 -10.671875 11.125 -10.109375 C 11.6875 -9.554688 11.96875 -8.820312 11.96875 -7.90625 L 11.96875 0 L 8.421875 0 L 8.421875 -7.296875 C 8.421875 -7.503906 8.351562 -7.675781 8.21875 -7.8125 C 8.082031 -7.945312 7.910156 -8.015625 7.703125 -8.015625 Z M 7 -8.015625 "/></g></g></g><g fill="#000000" fill-opacity="1"><g transform="translate(41.991861, 40.79689)"><g><path d="M 5.171875 -8.421875 C 4.628906 -8.421875 4.359375 -8.148438 4.359375 -7.609375 L 4.359375 -6.484375 L 7.8125 -6.484375 L 7.8125 -7.609375 C 7.8125 -8.148438 7.539062 -8.421875 7 -8.421875 Z M 10.953125 -0.203125 C 8.335938 0.0664062 5.972656 0.203125 3.859375 0.203125 C 2.929688 0.203125 2.191406 -0.0703125 1.640625 -0.625 C 1.085938 -1.175781 0.8125 -1.914062 0.8125 -2.84375 L 0.8125 -7.703125 C 0.8125 -8.722656 1.097656 -9.519531 1.671875 -10.09375 C 2.242188 -10.664062 3.039062 -10.953125 4.0625 -10.953125 L 8.109375 -10.953125 C 9.128906 -10.953125 9.925781 -10.664062 10.5 -10.09375 C 11.070312 -9.519531 11.359375 -8.722656 11.359375 -7.703125 L 11.359375 -3.953125 L 4.359375 -3.953125 L 4.359375 -3.140625 C 4.359375 -2.941406 4.425781 -2.773438 4.5625 -2.640625 C 4.695312 -2.503906 4.867188 -2.4375 5.078125 -2.4375 C 6.410156 -2.4375 8.367188 -2.535156 10.953125 -2.734375 Z M 10.953125 -0.203125 "/></g></g></g><g fill="#000000" fill-opacity="1"><g transform="translate(54.462376, 40.79689)"><g><path d="M 7.203125 -7.8125 C 6.347656 -7.8125 5.46875 -7.609375 4.5625 -7.203125 L 4.5625 0 L 1.015625 0 L 1.015625 -10.75 L 4.15625 -10.75 L 4.359375 -9.4375 C 5.523438 -10.445312 6.742188 -10.953125 8.015625 -10.953125 L 8.921875 -10.953125 L 8.921875 -7.8125 Z M 7.203125 -7.8125 "/></g></g></g><g fill="#000000" fill-opacity="1"><g transform="translate(64.094131, 40.79689)"><g><path d="M 5.265625 -2.640625 C 5.984375 -2.640625 6.796875 -2.773438 7.703125 -3.046875 L 7.703125 -4.265625 L 4.765625 -4.265625 C 4.566406 -4.265625 4.398438 -4.195312 4.265625 -4.0625 C 4.128906 -3.925781 4.0625 -3.753906 4.0625 -3.546875 L 4.0625 -3.34375 C 4.0625 -3.144531 4.128906 -2.976562 4.265625 -2.84375 C 4.398438 -2.707031 4.566406 -2.640625 4.765625 -2.640625 Z M 1.515625 -10.546875 C 3.992188 -10.816406 6.226562 -10.953125 8.21875 -10.953125 C 9.132812 -10.953125 9.867188 -10.671875 10.421875 -10.109375 C 10.972656 -9.554688 11.25 -8.820312 11.25 -7.90625 L 11.25 0 L 8.109375 0 L 7.90625 -1.015625 C 7.269531 -0.597656 6.617188 -0.289062 5.953125 -0.09375 C 5.285156 0.101562 4.722656 0.203125 4.265625 0.203125 L 3.546875 0.203125 C 2.628906 0.203125 1.890625 -0.0703125 1.328125 -0.625 C 0.773438 -1.175781 0.5 -1.914062 0.5 -2.84375 L 0.5 -3.75 C 0.5 -4.664062 0.773438 -5.398438 1.328125 -5.953125 C 1.890625 -6.515625 2.628906 -6.796875 3.546875 -6.796875 L 7.703125 -6.796875 L 7.703125 -7.609375 C 7.703125 -7.804688 7.632812 -7.972656 7.5 -8.109375 C 7.363281 -8.242188 7.195312 -8.3125 7 -8.3125 C 6.113281 -8.3125 5.140625 -8.269531 4.078125 -8.1875 C 3.023438 -8.113281 2.171875 -8.054688 1.515625 -8.015625 Z M 1.515625 -10.546875 "/></g></g></g><g fill="#000000" fill-opacity="1"><g transform="translate(76.463261, 40.79689)"><g><path d="M 8.515625 0 C 7.203125 0.132812 5.921875 0.203125 4.671875 0.203125 C 3.742188 0.203125 3.003906 -0.0703125 2.453125 -0.625 C 1.898438 -1.175781 1.625 -1.914062 1.625 -2.84375 L 1.625 -8.015625 L 0.40625 -8.015625 L 0.40625 -10.75 L 1.625 -10.75 L 2.03125 -13.1875 L 5.171875 -13.1875 L 5.171875 -10.75 L 7.703125 -10.75 L 7.703125 -8.015625 L 5.171875 -8.015625 L 5.171875 -3.34375 C 5.171875 -3.144531 5.238281 -2.976562 5.375 -2.84375 C 5.507812 -2.707031 5.675781 -2.640625 5.875 -2.640625 L 8.515625 -2.640625 Z M 8.515625 0 "/></g></g></g><g fill="#000000" fill-opacity="1"><g transform="translate(85.68947, 40.79689)"><g><path d="M 5.46875 -10.34375 L 5.46875 0 L 1.921875 0 L 1.921875 -7.609375 L 0.40625 -7.609375 L 0.40625 -10.34375 Z M 1.921875 -14.40625 L 5.46875 -14.40625 L 5.46875 -11.5625 L 1.921875 -11.5625 Z M 1.921875 -14.40625 "/></g></g></g><g fill="#000000" fill-opacity="1"><g transform="translate(92.482444, 40.79689)"><g><path d="M 11.96875 -3.046875 C 11.96875 -2.023438 11.675781 -1.226562 11.09375 -0.65625 C 10.519531 -0.0820312 9.726562 0.203125 8.71875 0.203125 L 4.0625 0.203125 C 3.039062 0.203125 2.242188 -0.0820312 1.671875 -0.65625 C 1.097656 -1.226562 0.8125 -2.023438 0.8125 -3.046875 L 0.8125 -7.703125 C 0.8125 -8.722656 1.097656 -9.519531 1.671875 -10.09375 C 2.242188 -10.664062 3.039062 -10.953125 4.0625 -10.953125 L 8.71875 -10.953125 C 9.726562 -10.953125 10.519531 -10.664062 11.09375 -10.09375 C 11.675781 -9.519531 11.96875 -8.722656 11.96875 -7.703125 Z M 8.421875 -7.40625 C 8.421875 -7.945312 8.148438 -8.21875 7.609375 -8.21875 L 5.171875 -8.21875 C 4.628906 -8.21875 4.359375 -7.945312 4.359375 -7.40625 L 4.359375 -3.34375 C 4.359375 -2.800781 4.628906 -2.53125 5.171875 -2.53125 L 7.609375 -2.53125 C 8.148438 -2.53125 8.421875 -2.800781 8.421875 -3.34375 Z M 8.421875 -7.40625 "/></g></g></g><g fill="#000000" fill-opacity="1"><g transform="translate(105.561271, 40.79689)"><g><path d="M 7 -8.015625 C 6.28125 -8.015625 5.46875 -7.878906 4.5625 -7.609375 L 4.5625 0 L 1.015625 0 L 1.015625 -10.75 L 4.15625 -10.75 L 4.359375 -9.734375 C 4.992188 -10.148438 5.644531 -10.457031 6.3125 -10.65625 C 6.988281 -10.851562 7.554688 -10.953125 8.015625 -10.953125 L 8.921875 -10.953125 C 9.835938 -10.953125 10.570312 -10.671875 11.125 -10.109375 C 11.6875 -9.554688 11.96875 -8.820312 11.96875 -7.90625 L 11.96875 0 L 8.421875 0 L 8.421875 -7.296875 C 8.421875 -7.503906 8.351562 -7.675781 8.21875 -7.8125 C 8.082031 -7.945312 7.910156 -8.015625 7.703125 -8.015625 Z M 7 -8.015625 "/></g></g></g><g fill="#000000" fill-opacity="1"><g transform="translate(1.944306, 63.18744)"><g><path d="M 7.90625 0 L 0.609375 0 L 0.609375 -2.84375 L 2.4375 -2.84375 L 2.4375 -11.359375 L 0.609375 -11.359375 L 0.609375 -14.203125 L 7.90625 -14.203125 L 7.90625 -11.359375 L 6.078125 -11.359375 L 6.078125 -2.84375 L 7.90625 -2.84375 Z M 7.90625 0 "/></g></g></g><g fill="#000000" fill-opacity="1"><g transform="translate(10.764975, 63.18744)"><g><path d="M 7 -8.015625 C 6.28125 -8.015625 5.46875 -7.878906 4.5625 -7.609375 L 4.5625 0 L 1.015625 0 L 1.015625 -10.75 L 4.15625 -10.75 L 4.359375 -9.734375 C 4.992188 -10.148438 5.644531 -10.457031 6.3125 -10.65625 C 6.988281 -10.851562 7.554688 -10.953125 8.015625 -10.953125 L 8.921875 -10.953125 C 9.835938 -10.953125 10.570312 -10.671875 11.125 -10.109375 C 11.6875 -9.554688 11.96875 -8.820312 11.96875 -7.90625 L 11.96875 0 L 8.421875 0 L 8.421875 -7.296875 C 8.421875 -7.503906 8.351562 -7.675781 8.21875 -7.8125 C 8.082031 -7.945312 7.910156 -8.015625 7.703125 -8.015625 Z M 7 -8.015625 "/></g></g></g><g fill="#000000" fill-opacity="1"><g transform="translate(23.843803, 63.18744)"><g><path d="M 7 -8.015625 C 6.28125 -8.015625 5.46875 -7.878906 4.5625 -7.609375 L 4.5625 0 L 1.015625 0 L 1.015625 -10.75 L 4.15625 -10.75 L 4.359375 -9.734375 C 4.992188 -10.148438 5.644531 -10.457031 6.3125 -10.65625 C 6.988281 -10.851562 7.554688 -10.953125 8.015625 -10.953125 L 8.921875 -10.953125 C 9.835938 -10.953125 10.570312 -10.671875 11.125 -10.109375 C 11.6875 -9.554688 11.96875 -8.820312 11.96875 -7.90625 L 11.96875 0 L 8.421875 0 L 8.421875 -7.296875 C 8.421875 -7.503906 8.351562 -7.675781 8.21875 -7.8125 C 8.082031 -7.945312 7.910156 -8.015625 7.703125 -8.015625 Z M 7 -8.015625 "/></g></g></g><g fill="#000000" fill-opacity="1"><g transform="translate(36.922632, 63.18744)"><g><path d="M 11.96875 -3.046875 C 11.96875 -2.023438 11.675781 -1.226562 11.09375 -0.65625 C 10.519531 -0.0820312 9.726562 0.203125 8.71875 0.203125 L 4.0625 0.203125 C 3.039062 0.203125 2.242188 -0.0820312 1.671875 -0.65625 C 1.097656 -1.226562 0.8125 -2.023438 0.8125 -3.046875 L 0.8125 -7.703125 C 0.8125 -8.722656 1.097656 -9.519531 1.671875 -10.09375 C 2.242188 -10.664062 3.039062 -10.953125 4.0625 -10.953125 L 8.71875 -10.953125 C 9.726562 -10.953125 10.519531 -10.664062 11.09375 -10.09375 C 11.675781 -9.519531 11.96875 -8.722656 11.96875 -7.703125 Z M 8.421875 -7.40625 C 8.421875 -7.945312 8.148438 -8.21875 7.609375 -8.21875 L 5.171875 -8.21875 C 4.628906 -8.21875 4.359375 -7.945312 4.359375 -7.40625 L 4.359375 -3.34375 C 4.359375 -2.800781 4.628906 -2.53125 5.171875 -2.53125 L 7.609375 -2.53125 C 8.148438 -2.53125 8.421875 -2.800781 8.421875 -3.34375 Z M 8.421875 -7.40625 "/></g></g></g><g fill="#000000" fill-opacity="1"><g transform="translate(50.005271, 63.18744)"><g><path d="M 8.21875 -10.75 L 11.96875 -10.75 L 7.90625 0 L 3.859375 0 L -0.203125 -10.75 L 3.546875 -10.75 L 5.875 -3.453125 Z M 8.21875 -10.75 "/></g></g></g><g fill="#000000" fill-opacity="1"><g transform="translate(62.07026, 63.18744)"><g><path d="M 5.265625 -2.640625 C 5.984375 -2.640625 6.796875 -2.773438 7.703125 -3.046875 L 7.703125 -4.265625 L 4.765625 -4.265625 C 4.566406 -4.265625 4.398438 -4.195312 4.265625 -4.0625 C 4.128906 -3.925781 4.0625 -3.753906 4.0625 -3.546875 L 4.0625 -3.34375 C 4.0625 -3.144531 4.128906 -2.976562 4.265625 -2.84375 C 4.398438 -2.707031 4.566406 -2.640625 4.765625 -2.640625 Z M 1.515625 -10.546875 C 3.992188 -10.816406 6.226562 -10.953125 8.21875 -10.953125 C 9.132812 -10.953125 9.867188 -10.671875 10.421875 -10.109375 C 10.972656 -9.554688 11.25 -8.820312 11.25 -7.90625 L 11.25 0 L 8.109375 0 L 7.90625 -1.015625 C 7.269531 -0.597656 6.617188 -0.289062 5.953125 -0.09375 C 5.285156 0.101562 4.722656 0.203125 4.265625 0.203125 L 3.546875 0.203125 C 2.628906 0.203125 1.890625 -0.0703125 1.328125 -0.625 C 0.773438 -1.175781 0.5 -1.914062 0.5 -2.84375 L 0.5 -3.75 C 0.5 -4.664062 0.773438 -5.398438 1.328125 -5.953125 C 1.890625 -6.515625 2.628906 -6.796875 3.546875 -6.796875 L 7.703125 -6.796875 L 7.703125 -7.609375 C 7.703125 -7.804688 7.632812 -7.972656 7.5 -8.109375 C 7.363281 -8.242188 7.195312 -8.3125 7 -8.3125 C 6.113281 -8.3125 5.140625 -8.269531 4.078125 -8.1875 C 3.023438 -8.113281 2.171875 -8.054688 1.515625 -8.015625 Z M 1.515625 -10.546875 "/></g></g></g><g fill="#000000" fill-opacity="1"><g transform="translate(74.43939, 63.18744)"><g><path d="M 8.515625 0 C 7.203125 0.132812 5.921875 0.203125 4.671875 0.203125 C 3.742188 0.203125 3.003906 -0.0703125 2.453125 -0.625 C 1.898438 -1.175781 1.625 -1.914062 1.625 -2.84375 L 1.625 -8.015625 L 0.40625 -8.015625 L 0.40625 -10.75 L 1.625 -10.75 L 2.03125 -13.1875 L 5.171875 -13.1875 L 5.171875 -10.75 L 7.703125 -10.75 L 7.703125 -8.015625 L 5.171875 -8.015625 L 5.171875 -3.34375 C 5.171875 -3.144531 5.238281 -2.976562 5.375 -2.84375 C 5.507812 -2.707031 5.675781 -2.640625 5.875 -2.640625 L 8.515625 -2.640625 Z M 8.515625 0 "/></g></g></g><g fill="#000000" fill-opacity="1"><g transform="translate(83.665602, 63.18744)"><g><path d="M 5.46875 -10.34375 L 5.46875 0 L 1.921875 0 L 1.921875 -7.609375 L 0.40625 -7.609375 L 0.40625 -10.34375 Z M 1.921875 -14.40625 L 5.46875 -14.40625 L 5.46875 -11.5625 L 1.921875 -11.5625 Z M 1.921875 -14.40625 "/></g></g></g><g fill="#000000" fill-opacity="1"><g transform="translate(90.458575, 63.18744)"><g><path d="M 8.21875 -10.75 L 11.96875 -10.75 L 7.90625 0 L 3.859375 0 L -0.203125 -10.75 L 3.546875 -10.75 L 5.875 -3.453125 Z M 8.21875 -10.75 "/></g></g></g><g fill="#000000" fill-opacity="1"><g transform="translate(102.523562, 63.18744)"><g><path d="M 5.171875 -8.421875 C 4.628906 -8.421875 4.359375 -8.148438 4.359375 -7.609375 L 4.359375 -6.484375 L 7.8125 -6.484375 L 7.8125 -7.609375 C 7.8125 -8.148438 7.539062 -8.421875 7 -8.421875 Z M 10.953125 -0.203125 C 8.335938 0.0664062 5.972656 0.203125 3.859375 0.203125 C 2.929688 0.203125 2.191406 -0.0703125 1.640625 -0.625 C 1.085938 -1.175781 0.8125 -1.914062 0.8125 -2.84375 L 0.8125 -7.703125 C 0.8125 -8.722656 1.097656 -9.519531 1.671875 -10.09375 C 2.242188 -10.664062 3.039062 -10.953125 4.0625 -10.953125 L 8.109375 -10.953125 C 9.128906 -10.953125 9.925781 -10.664062 10.5 -10.09375 C 11.070312 -9.519531 11.359375 -8.722656 11.359375 -7.703125 L 11.359375 -3.953125 L 4.359375 -3.953125 L 4.359375 -3.140625 C 4.359375 -2.941406 4.425781 -2.773438 4.5625 -2.640625 C 4.695312 -2.503906 4.867188 -2.4375 5.078125 -2.4375 C 6.410156 -2.4375 8.367188 -2.535156 10.953125 -2.734375 Z M 10.953125 -0.203125 "/></g></g></g><g fill="#000000" fill-opacity="1"><g transform="translate(1.944306, 85.57799)"><g><path d="M 7.203125 -4.265625 L 10.640625 -14.203125 L 14.609375 -14.203125 L 9.234375 0 L 5.171875 0 L -0.203125 -14.203125 L 3.75 -14.203125 Z M 7.203125 -4.265625 "/></g></g></g><g fill="#000000" fill-opacity="1"><g transform="translate(16.645287, 85.57799)"><g><path d="M 5.46875 -10.34375 L 5.46875 0 L 1.921875 0 L 1.921875 -7.609375 L 0.40625 -7.609375 L 0.40625 -10.34375 Z M 1.921875 -14.40625 L 5.46875 -14.40625 L 5.46875 -11.5625 L 1.921875 -11.5625 Z M 1.921875 -14.40625 "/></g></g></g><g fill="#000000" fill-opacity="1"><g transform="translate(23.438261, 85.57799)"><g><path d="M 0.609375 -2.84375 C 3.347656 -2.632812 5.507812 -2.53125 7.09375 -2.53125 C 7.300781 -2.53125 7.472656 -2.597656 7.609375 -2.734375 C 7.742188 -2.867188 7.8125 -3.039062 7.8125 -3.25 L 7.8125 -3.953125 L 3.453125 -3.953125 C 2.523438 -3.953125 1.785156 -4.226562 1.234375 -4.78125 C 0.679688 -5.34375 0.40625 -6.082031 0.40625 -7 L 0.40625 -7.703125 C 0.40625 -8.628906 0.679688 -9.367188 1.234375 -9.921875 C 1.785156 -10.472656 2.523438 -10.75 3.453125 -10.75 L 10.34375 -10.75 L 10.34375 -8.109375 L 4.671875 -8.109375 C 4.460938 -8.109375 4.289062 -8.039062 4.15625 -7.90625 C 4.019531 -7.769531 3.953125 -7.601562 3.953125 -7.40625 C 3.953125 -7.195312 4.019531 -7.023438 4.15625 -6.890625 C 4.289062 -6.753906 4.460938 -6.6875 4.671875 -6.6875 L 8.3125 -6.6875 C 9.226562 -6.6875 9.960938 -6.410156 10.515625 -5.859375 C 11.078125 -5.304688 11.359375 -4.570312 11.359375 -3.65625 L 11.359375 -2.84375 C 11.359375 -1.914062 11.078125 -1.175781 10.515625 -0.625 C 9.960938 -0.0703125 9.226562 0.203125 8.3125 0.203125 C 5.914062 0.203125 3.347656 0.0664062 0.609375 -0.203125 Z M 0.609375 -2.84375 "/></g></g></g><g fill="#000000" fill-opacity="1"><g transform="translate(35.503251, 85.57799)"><g><path d="M 5.46875 -10.34375 L 5.46875 0 L 1.921875 0 L 1.921875 -7.609375 L 0.40625 -7.609375 L 0.40625 -10.34375 Z M 1.921875 -14.40625 L 5.46875 -14.40625 L 5.46875 -11.5625 L 1.921875 -11.5625 Z M 1.921875 -14.40625 "/></g></g></g><g fill="#000000" fill-opacity="1"><g transform="translate(42.296224, 85.57799)"><g><path d="M 11.96875 -3.046875 C 11.96875 -2.023438 11.675781 -1.226562 11.09375 -0.65625 C 10.519531 -0.0820312 9.726562 0.203125 8.71875 0.203125 L 4.0625 0.203125 C 3.039062 0.203125 2.242188 -0.0820312 1.671875 -0.65625 C 1.097656 -1.226562 0.8125 -2.023438 0.8125 -3.046875 L 0.8125 -7.703125 C 0.8125 -8.722656 1.097656 -9.519531 1.671875 -10.09375 C 2.242188 -10.664062 3.039062 -10.953125 4.0625 -10.953125 L 8.71875 -10.953125 C 9.726562 -10.953125 10.519531 -10.664062 11.09375 -10.09375 C 11.675781 -9.519531 11.96875 -8.722656 11.96875 -7.703125 Z M 8.421875 -7.40625 C 8.421875 -7.945312 8.148438 -8.21875 7.609375 -8.21875 L 5.171875 -8.21875 C 4.628906 -8.21875 4.359375 -7.945312 4.359375 -7.40625 L 4.359375 -3.34375 C 4.359375 -2.800781 4.628906 -2.53125 5.171875 -2.53125 L 7.609375 -2.53125 C 8.148438 -2.53125 8.421875 -2.800781 8.421875 -3.34375 Z M 8.421875 -7.40625 "/></g></g></g><g fill="#000000" fill-opacity="1"><g transform="translate(55.375052, 85.57799)"><g><path d="M 7 -8.015625 C 6.28125 -8.015625 5.46875 -7.878906 4.5625 -7.609375 L 4.5625 0 L 1.015625 0 L 1.015625 -10.75 L 4.15625 -10.75 L 4.359375 -9.734375 C 4.992188 -10.148438 5.644531 -10.457031 6.3125 -10.65625 C 6.988281 -10.851562 7.554688 -10.953125 8.015625 -10.953125 L 8.921875 -10.953125 C 9.835938 -10.953125 10.570312 -10.671875 11.125 -10.109375 C 11.6875 -9.554688 11.96875 -8.820312 11.96875 -7.90625 L 11.96875 0 L 8.421875 0 L 8.421875 -7.296875 C 8.421875 -7.503906 8.351562 -7.675781 8.21875 -7.8125 C 8.082031 -7.945312 7.910156 -8.015625 7.703125 -8.015625 Z M 7 -8.015625 "/></g></g></g><g fill="#000000" fill-opacity="1"><g transform="translate(68.453883, 85.57799)"><g/></g></g><g fill="#000000" fill-opacity="1"><g transform="translate(74.841314, 85.57799)"><g><path d="M 13.390625 -0.296875 C 10.222656 0.0351562 7.316406 0.203125 4.671875 0.203125 C 3.335938 0.203125 2.359375 -0.101562 1.734375 -0.71875 C 1.117188 -1.34375 0.8125 -2.320312 0.8125 -3.65625 L 0.8125 -10.140625 C 0.8125 -11.554688 1.128906 -12.585938 1.765625 -13.234375 C 2.410156 -13.878906 3.445312 -14.203125 4.875 -14.203125 L 12.171875 -14.203125 L 12.171875 -11.359375 L 5.671875 -11.359375 C 4.867188 -11.359375 4.46875 -10.953125 4.46875 -10.140625 L 4.46875 -3.65625 C 4.46875 -3.34375 4.554688 -3.09375 4.734375 -2.90625 C 4.921875 -2.726562 5.164062 -2.640625 5.46875 -2.640625 C 7.03125 -2.640625 8.453125 -2.671875 9.734375 -2.734375 L 9.734375 -5.671875 L 7.09375 -5.671875 L 7.09375 -8.109375 L 13.390625 -8.109375 Z M 13.390625 -0.296875 "/></g></g></g><g fill="#000000" fill-opacity="1"><g transform="translate(89.339524, 85.57799)"><g><path d="M 7.203125 -7.8125 C 6.347656 -7.8125 5.46875 -7.609375 4.5625 -7.203125 L 4.5625 0 L 1.015625 0 L 1.015625 -10.75 L 4.15625 -10.75 L 4.359375 -9.4375 C 5.523438 -10.445312 6.742188 -10.953125 8.015625 -10.953125 L 8.921875 -10.953125 L 8.921875 -7.8125 Z M 7.203125 -7.8125 "/></g></g></g><g fill="#000000" fill-opacity="1"><g transform="translate(98.971275, 85.57799)"><g><path d="M 11.96875 -3.046875 C 11.96875 -2.023438 11.675781 -1.226562 11.09375 -0.65625 C 10.519531 -0.0820312 9.726562 0.203125 8.71875 0.203125 L 4.0625 0.203125 C 3.039062 0.203125 2.242188 -0.0820312 1.671875 -0.65625 C 1.097656 -1.226562 0.8125 -2.023438 0.8125 -3.046875 L 0.8125 -7.703125 C 0.8125 -8.722656 1.097656 -9.519531 1.671875 -10.09375 C 2.242188 -10.664062 3.039062 -10.953125 4.0625 -10.953125 L 8.71875 -10.953125 C 9.726562 -10.953125 10.519531 -10.664062 11.09375 -10.09375 C 11.675781 -9.519531 11.96875 -8.722656 11.96875 -7.703125 Z M 8.421875 -7.40625 C 8.421875 -7.945312 8.148438 -8.21875 7.609375 -8.21875 L 5.171875 -8.21875 C 4.628906 -8.21875 4.359375 -7.945312 4.359375 -7.40625 L 4.359375 -3.34375 C 4.359375 -2.800781 4.628906 -2.53125 5.171875 -2.53125 L 7.609375 -2.53125 C 8.148438 -2.53125 8.421875 -2.800781 8.421875 -3.34375 Z M 8.421875 -7.40625 "/></g></g></g><g fill="#000000" fill-opacity="1"><g transform="translate(112.050102, 85.57799)"><g><path d="M 5.984375 -2.734375 C 6.703125 -2.734375 7.515625 -2.867188 8.421875 -3.140625 L 8.421875 -10.75 L 11.96875 -10.75 L 11.96875 0 L 8.828125 0 L 8.625 -1.015625 C 7.988281 -0.597656 7.332031 -0.289062 6.65625 -0.09375 C 5.988281 0.101562 5.425781 0.203125 4.96875 0.203125 L 4.0625 0.203125 C 3.132812 0.203125 2.394531 -0.0703125 1.84375 -0.625 C 1.289062 -1.175781 1.015625 -1.914062 1.015625 -2.84375 L 1.015625 -10.75 L 4.5625 -10.75 L 4.5625 -3.453125 C 4.5625 -3.242188 4.628906 -3.070312 4.765625 -2.9375 C 4.898438 -2.800781 5.066406 -2.734375 5.265625 -2.734375 Z M 5.984375 -2.734375 "/></g></g></g><g fill="#000000" fill-opacity="1"><g transform="translate(125.331701, 85.57799)"><g><path d="M 7 -8.015625 C 6.28125 -8.015625 5.46875 -7.878906 4.5625 -7.609375 L 4.5625 -2.734375 L 7.609375 -2.734375 C 8.148438 -2.734375 8.421875 -3.003906 8.421875 -3.546875 L 8.421875 -7.296875 C 8.421875 -7.503906 8.351562 -7.675781 8.21875 -7.8125 C 8.082031 -7.945312 7.910156 -8.015625 7.703125 -8.015625 Z M 4.5625 0 L 4.5625 3.453125 L 1.015625 3.453125 L 1.015625 -10.75 L 4.15625 -10.75 L 4.359375 -9.734375 C 4.992188 -10.148438 5.644531 -10.457031 6.3125 -10.65625 C 6.988281 -10.851562 7.554688 -10.953125 8.015625 -10.953125 L 8.921875 -10.953125 C 9.835938 -10.953125 10.570312 -10.671875 11.125 -10.109375 C 11.6875 -9.554688 11.96875 -8.820312 11.96875 -7.90625 L 11.96875 -3.25 C 11.96875 -2.226562 11.675781 -1.429688 11.09375 -0.859375 C 10.519531 -0.285156 9.726562 0 8.71875 0 Z M 4.5625 0 "/></g></g></g></g></g></g><g mask="url(#2f031b6824)"><g transform="matrix(1, 0, 0, 1, 179, 233)"><g clip-path="url(#383f3749f8)"><g clip-path="url(#5d942e9361)"><g fill="#000000" fill-opacity="1"><g transform="translate(0.230613, 44.305919)"><g><path d="M 20.171875 -31.25 C 20.347656 -30.394531 20.441406 -29.519531 20.453125 -28.625 C 20.492188 -27.019531 20.476562 -25.421875 20.40625 -23.828125 C 20.332031 -22.234375 20.222656 -20.632812 20.078125 -19.03125 C 19.972656 -17.65625 19.863281 -16.273438 19.75 -14.890625 C 19.664062 -13.753906 19.582031 -12.617188 19.5 -11.484375 C 19.394531 -10.179688 19.285156 -8.878906 19.171875 -7.578125 C 19.054688 -6.285156 18.941406 -4.984375 18.828125 -3.671875 C 18.703125 -2.160156 18.59375 -0.648438 18.5 0.859375 C 18.445312 1.878906 18.394531 2.882812 18.34375 3.875 C 18.289062 5.007812 18.234375 6.15625 18.171875 7.3125 C 17.992188 10.125 17.925781 12.9375 17.96875 15.75 C 17.96875 15.925781 17.957031 16.097656 17.9375 16.265625 C 17.882812 16.429688 17.765625 16.53125 17.578125 16.5625 C 16.992188 16.675781 16.664062 16.457031 16.59375 15.90625 C 16.550781 15.488281 16.53125 15.066406 16.53125 14.640625 C 16.53125 13.847656 16.53125 13.050781 16.53125 12.25 C 16.5 10.101562 16.492188 7.945312 16.515625 5.78125 C 16.554688 3.757812 16.65625 1.738281 16.8125 -0.28125 C 16.988281 -2.738281 17.179688 -5.191406 17.390625 -7.640625 C 17.515625 -9.140625 17.632812 -10.625 17.75 -12.09375 C 18.039062 -15.800781 18.328125 -19.5 18.609375 -23.1875 C 18.753906 -25.257812 18.785156 -27.332031 18.703125 -29.40625 C 18.648438 -30.632812 18.441406 -31.269531 18.078125 -31.3125 C 17.710938 -31.351562 17.238281 -30.945312 16.65625 -30.09375 C 16.070312 -29.238281 15.414062 -28.066406 14.6875 -26.578125 C 13.957031 -25.085938 13.203125 -23.421875 12.421875 -21.578125 C 11.648438 -19.742188 10.890625 -17.882812 10.140625 -16 C 9.390625 -14.113281 8.695312 -12.332031 8.0625 -10.65625 C 7.4375 -8.976562 6.910156 -7.554688 6.484375 -6.390625 C 6.066406 -5.222656 5.785156 -4.441406 5.640625 -4.046875 C 5.597656 -3.929688 5.578125 -3.867188 5.578125 -3.859375 C 4.828125 -1.847656 4.050781 0.148438 3.25 2.140625 C 3.019531 2.679688 2.757812 3.210938 2.46875 3.734375 C 2.40625 3.828125 2.335938 3.9375 2.265625 4.0625 C 2.128906 4.351562 1.921875 4.546875 1.640625 4.640625 C 1.210938 4.765625 0.84375 4.765625 0.53125 4.640625 C 0.21875 4.515625 0.0546875 4.191406 0.046875 3.671875 C 0.015625 2.523438 0.0195312 1.382812 0.0625 0.25 C 0.09375 -0.332031 0.113281 -0.921875 0.125 -1.515625 C 0.25 -4.671875 0.382812 -7.832031 0.53125 -11 C 0.632812 -13.113281 0.753906 -15.222656 0.890625 -17.328125 C 0.992188 -18.960938 1.097656 -20.59375 1.203125 -22.21875 C 1.222656 -22.863281 1.265625 -23.507812 1.328125 -24.15625 C 1.441406 -25.519531 1.5 -26.890625 1.5 -28.265625 C 1.5 -28.441406 1.507812 -28.617188 1.53125 -28.796875 C 1.570312 -29.242188 1.816406 -29.46875 2.265625 -29.46875 C 2.710938 -29.46875 2.960938 -29.234375 3.015625 -28.765625 C 3.066406 -28.128906 3.082031 -27.484375 3.0625 -26.828125 C 3.039062 -26.179688 3.007812 -25.53125 2.96875 -24.875 C 2.96875 -24.832031 2.96875 -24.785156 2.96875 -24.734375 C 2.90625 -23.953125 2.847656 -23.164062 2.796875 -22.375 C 2.722656 -21.53125 2.65625 -20.675781 2.59375 -19.8125 C 2.375 -15.820312 2.160156 -11.828125 1.953125 -7.828125 C 1.816406 -5.140625 1.6875 -2.453125 1.5625 0.234375 C 1.539062 1.066406 1.625 1.472656 1.8125 1.453125 C 2 1.429688 2.242188 1.132812 2.546875 0.5625 C 2.859375 -0.0078125 3.179688 -0.707031 3.515625 -1.53125 C 3.859375 -2.363281 4.175781 -3.15625 4.46875 -3.90625 C 4.757812 -4.664062 4.96875 -5.234375 5.09375 -5.609375 C 5.132812 -5.722656 5.164062 -5.804688 5.1875 -5.859375 C 5.644531 -7.117188 6.179688 -8.65625 6.796875 -10.46875 C 7.421875 -12.3125 8.109375 -14.273438 8.859375 -16.359375 C 9.609375 -18.441406 10.398438 -20.492188 11.234375 -22.515625 C 12.078125 -24.535156 12.945312 -26.351562 13.84375 -27.96875 C 14.738281 -29.59375 15.648438 -30.863281 16.578125 -31.78125 C 16.859375 -32.050781 17.15625 -32.28125 17.46875 -32.46875 C 18.09375 -32.8125 18.660156 -32.867188 19.171875 -32.640625 C 19.691406 -32.410156 20.023438 -31.945312 20.171875 -31.25 Z M 20.171875 -31.25 "/></g></g></g></g><g fill="#000000" fill-opacity="1"><g transform="translate(21.642226, 44.305919)"><g><path d="M 5.140625 -4.015625 C 4.929688 -3.597656 4.582031 -3.128906 4.09375 -2.609375 C 3.601562 -2.097656 3.046875 -1.769531 2.421875 -1.625 C 1.796875 -1.488281 1.203125 -1.707031 0.640625 -2.28125 C 0.421875 -2.53125 0.257812 -2.816406 0.15625 -3.140625 C 0.0507812 -3.472656 0.015625 -3.796875 0.046875 -4.109375 C 0.046875 -4.191406 0.046875 -4.300781 0.046875 -4.4375 C 0.046875 -4.769531 0.0546875 -5.15625 0.078125 -5.59375 C 0.109375 -6.039062 0.175781 -6.441406 0.28125 -6.796875 C 0.382812 -7.160156 0.546875 -7.378906 0.765625 -7.453125 C 1.390625 -7.609375 1.726562 -7.390625 1.78125 -6.796875 C 1.78125 -6.597656 1.773438 -6.40625 1.765625 -6.21875 C 1.753906 -6.125 1.75 -6.03125 1.75 -5.9375 C 1.726562 -5.664062 1.710938 -5.390625 1.703125 -5.109375 C 1.703125 -4.890625 1.691406 -4.671875 1.671875 -4.453125 C 1.660156 -3.492188 1.875 -2.921875 2.3125 -2.734375 C 2.757812 -2.554688 3.265625 -2.75 3.828125 -3.3125 C 4.398438 -3.882812 4.769531 -4.359375 4.9375 -4.734375 C 5.113281 -5.117188 5.242188 -5.203125 5.328125 -4.984375 C 5.410156 -4.765625 5.347656 -4.441406 5.140625 -4.015625 Z M 1.65625 -9.484375 C 1.570312 -9.410156 1.46875 -9.363281 1.34375 -9.34375 C 1.21875 -9.320312 1.109375 -9.332031 1.015625 -9.375 C 0.941406 -9.4375 0.894531 -9.515625 0.875 -9.609375 C 0.863281 -9.703125 0.859375 -9.816406 0.859375 -9.953125 C 0.859375 -9.972656 0.863281 -10 0.875 -10.03125 C 0.882812 -10.144531 0.910156 -10.265625 0.953125 -10.390625 C 1.085938 -10.703125 1.363281 -10.847656 1.78125 -10.828125 C 1.925781 -10.804688 2.039062 -10.742188 2.125 -10.640625 C 2.207031 -10.546875 2.222656 -10.429688 2.171875 -10.296875 C 2.078125 -9.972656 1.90625 -9.703125 1.65625 -9.484375 Z M 1.65625 -9.484375 "/></g></g></g><g fill="#000000" fill-opacity="1"><g transform="translate(26.809869, 44.305919)"><g><path d="M 7.3125 -5.171875 C 7.8125 -5.304688 8.015625 -5.300781 7.921875 -5.15625 C 7.828125 -5.007812 7.503906 -4.863281 6.953125 -4.71875 C 6.546875 -4.613281 6.191406 -4.5625 5.890625 -4.5625 C 5.597656 -4.5625 5.328125 -4.660156 5.078125 -4.859375 C 5.015625 -4.648438 4.957031 -4.453125 4.90625 -4.265625 C 4.78125 -3.867188 4.664062 -3.5 4.5625 -3.15625 C 4.414062 -2.644531 4.203125 -2.164062 3.921875 -1.71875 C 3.691406 -1.34375 3.382812 -1.085938 3 -0.953125 C 2.625 -0.816406 2.253906 -0.816406 1.890625 -0.953125 C 1.523438 -1.097656 1.226562 -1.378906 1 -1.796875 C 0.707031 -2.410156 0.515625 -3.050781 0.421875 -3.71875 C 0.203125 -4.707031 0.0664062 -5.707031 0.015625 -6.71875 C 0.00390625 -6.957031 0.015625 -7.179688 0.046875 -7.390625 C 0.0859375 -7.679688 0.265625 -7.828125 0.578125 -7.828125 C 0.816406 -7.816406 0.960938 -7.675781 1.015625 -7.40625 C 1.066406 -7.144531 1.09375 -6.875 1.09375 -6.59375 C 1.09375 -6.488281 1.097656 -6.398438 1.109375 -6.328125 C 1.109375 -6.222656 1.140625 -5.890625 1.203125 -5.328125 C 1.273438 -4.773438 1.375 -4.179688 1.5 -3.546875 C 1.632812 -2.921875 1.796875 -2.441406 1.984375 -2.109375 C 2.171875 -1.773438 2.394531 -1.78125 2.65625 -2.125 C 2.90625 -2.5 3.078125 -2.90625 3.171875 -3.34375 C 3.429688 -4.21875 3.664062 -5.09375 3.875 -5.96875 C 3.96875 -6.375 4.132812 -6.742188 4.375 -7.078125 C 4.632812 -7.398438 4.976562 -7.476562 5.40625 -7.3125 C 5.507812 -7.28125 5.585938 -7.226562 5.640625 -7.15625 C 5.703125 -7.082031 5.722656 -7.003906 5.703125 -6.921875 C 5.691406 -6.816406 5.671875 -6.707031 5.640625 -6.59375 C 5.566406 -6.375 5.507812 -6.15625 5.46875 -5.9375 C 5.4375 -5.71875 5.453125 -5.550781 5.515625 -5.4375 C 5.617188 -5.289062 5.859375 -5.1875 6.234375 -5.125 C 6.609375 -5.070312 6.96875 -5.085938 7.3125 -5.171875 Z M 7.3125 -5.171875 "/></g></g></g><g fill="#000000" fill-opacity="1"><g transform="translate(34.453726, 44.305919)"><g><path d="M 16.96875 -30.40625 C 18.289062 -30.070312 19.359375 -29.289062 20.171875 -28.0625 C 21.054688 -26.664062 21.582031 -25.238281 21.75 -23.78125 C 21.789062 -23.332031 21.578125 -23.117188 21.109375 -23.140625 C 20.660156 -23.148438 20.351562 -23.390625 20.1875 -23.859375 C 20.113281 -24.097656 20.050781 -24.332031 20 -24.5625 C 19.96875 -24.726562 19.929688 -24.890625 19.890625 -25.046875 C 19.617188 -26.035156 19.160156 -26.972656 18.515625 -27.859375 C 17.691406 -29.003906 16.671875 -29.609375 15.453125 -29.671875 C 14.585938 -29.679688 13.800781 -29.523438 13.09375 -29.203125 C 11.1875 -28.390625 9.535156 -27.164062 8.140625 -25.53125 C 6.753906 -23.894531 5.601562 -21.988281 4.6875 -19.8125 C 3.769531 -17.632812 3.078125 -15.328125 2.609375 -12.890625 C 2.148438 -10.453125 1.882812 -8.019531 1.8125 -5.59375 C 1.75 -3.175781 1.867188 -0.90625 2.171875 1.21875 C 2.484375 3.34375 2.945312 5.175781 3.5625 6.71875 C 4.1875 8.257812 4.925781 9.441406 5.78125 10.265625 C 6.644531 11.085938 7.691406 11.359375 8.921875 11.078125 C 10.160156 10.804688 11.6875 9.253906 13.5 6.421875 C 15.3125 3.597656 16.910156 -1.394531 18.296875 -8.5625 C 18.367188 -8.8125 18.359375 -8.984375 18.265625 -9.078125 C 18.171875 -9.179688 17.972656 -9.234375 17.671875 -9.234375 C 17.648438 -9.234375 17.628906 -9.234375 17.609375 -9.234375 C 17.546875 -9.234375 17.484375 -9.222656 17.421875 -9.203125 C 16.890625 -9.171875 16.347656 -9.132812 15.796875 -9.09375 C 14.359375 -8.988281 12.921875 -8.890625 11.484375 -8.796875 C 11.078125 -8.785156 10.671875 -8.785156 10.265625 -8.796875 C 10.242188 -8.796875 10.234375 -8.796875 10.234375 -8.796875 C 10.140625 -8.804688 10.050781 -8.835938 9.96875 -8.890625 C 9.882812 -8.953125 9.820312 -9.03125 9.78125 -9.125 C 9.738281 -9.207031 9.726562 -9.285156 9.75 -9.359375 C 9.769531 -9.441406 9.820312 -9.5 9.90625 -9.53125 C 9.976562 -9.550781 10.050781 -9.570312 10.125 -9.59375 C 10.394531 -9.695312 10.664062 -9.765625 10.9375 -9.796875 C 12.34375 -9.953125 13.554688 -10.054688 14.578125 -10.109375 C 15.597656 -10.171875 16.957031 -10.335938 18.65625 -10.609375 C 20.363281 -10.878906 21.179688 -10.125 21.109375 -8.34375 C 21.035156 -6.5625 21.085938 -4.628906 21.265625 -2.546875 C 21.378906 -1.398438 21.503906 -0.25 21.640625 0.90625 C 21.785156 2.0625 21.953125 3.226562 22.140625 4.40625 C 22.203125 4.882812 22.28125 5.375 22.375 5.875 C 22.394531 5.988281 22.414062 6.097656 22.4375 6.203125 C 22.445312 6.316406 22.472656 6.425781 22.515625 6.53125 C 22.585938 6.90625 22.453125 7.097656 22.109375 7.109375 C 21.660156 7.148438 21.347656 6.992188 21.171875 6.640625 C 21.078125 6.421875 20.992188 6.191406 20.921875 5.953125 C 20.898438 5.921875 20.882812 5.882812 20.875 5.84375 C 20.289062 4.175781 19.9375 2.519531 19.8125 0.875 C 19.695312 -0.207031 19.59375 -1.300781 19.5 -2.40625 C 19.4375 -2.945312 19.378906 -3.484375 19.328125 -4.015625 C 19.160156 -3.890625 19.046875 -3.742188 18.984375 -3.578125 C 18.921875 -3.410156 18.878906 -3.238281 18.859375 -3.0625 C 18.847656 -2.976562 18.832031 -2.890625 18.8125 -2.796875 C 17.613281 0.898438 16.269531 4.070312 14.78125 6.71875 C 13.289062 9.363281 11.707031 11.101562 10.03125 11.9375 C 8.351562 12.78125 6.898438 12.875 5.671875 12.21875 C 4.441406 11.570312 3.390625 10.378906 2.515625 8.640625 C 1.640625 6.910156 0.96875 4.828125 0.5 2.390625 C 0.03125 -0.0351562 -0.203125 -2.640625 -0.203125 -5.421875 C -0.210938 -8.203125 0.0351562 -10.96875 0.546875 -13.71875 C 1.066406 -16.476562 1.875 -19.039062 2.96875 -21.40625 C 4.0625 -23.769531 5.472656 -25.757812 7.203125 -27.375 C 8.929688 -28.988281 11.003906 -30.046875 13.421875 -30.546875 C 14.546875 -30.765625 15.726562 -30.71875 16.96875 -30.40625 Z M 16.96875 -30.40625 "/></g></g></g><g fill="#000000" fill-opacity="1"><g transform="translate(57.450118, 44.305919)"><g><path d="M 6.3125 -4.75 C 6.4375 -5 6.519531 -5.113281 6.5625 -5.09375 C 6.613281 -5.082031 6.628906 -4.976562 6.609375 -4.78125 C 6.585938 -4.59375 6.546875 -4.382812 6.484375 -4.15625 C 6.398438 -3.789062 6.25 -3.367188 6.03125 -2.890625 C 5.820312 -2.410156 5.59375 -1.972656 5.34375 -1.578125 C 4.957031 -1.035156 4.476562 -0.628906 3.90625 -0.359375 C 3.34375 -0.0859375 2.832031 -0.0195312 2.375 -0.15625 C 1.914062 -0.289062 1.648438 -0.722656 1.578125 -1.453125 C 1.566406 -2.054688 1.625 -2.722656 1.75 -3.453125 C 1.78125 -3.753906 1.820312 -4.050781 1.875 -4.34375 C 1.875 -4.445312 1.847656 -4.523438 1.796875 -4.578125 C 1.742188 -4.640625 1.671875 -4.664062 1.578125 -4.65625 C 1.523438 -4.65625 1.460938 -4.65625 1.390625 -4.65625 C 1.023438 -4.59375 0.65625 -4.597656 0.28125 -4.671875 C -0.164062 -4.804688 -0.425781 -5.03125 -0.5 -5.34375 C -0.570312 -5.65625 -0.566406 -6.066406 -0.484375 -6.578125 C -0.441406 -6.941406 -0.304688 -7.210938 -0.078125 -7.390625 C 0.140625 -7.578125 0.40625 -7.648438 0.71875 -7.609375 C 1.132812 -7.578125 1.335938 -7.414062 1.328125 -7.125 C 1.316406 -6.84375 1.238281 -6.539062 1.09375 -6.21875 C 0.957031 -5.945312 0.882812 -5.71875 0.875 -5.53125 C 0.875 -5.351562 1.03125 -5.289062 1.34375 -5.34375 C 1.414062 -5.363281 1.492188 -5.390625 1.578125 -5.421875 C 1.703125 -5.460938 1.835938 -5.5 1.984375 -5.53125 C 2.140625 -5.570312 2.335938 -5.582031 2.578125 -5.5625 C 2.867188 -5.550781 3.0625 -5.414062 3.15625 -5.15625 C 3.257812 -4.90625 3.300781 -4.585938 3.28125 -4.203125 C 3.269531 -3.828125 3.234375 -3.441406 3.171875 -3.046875 C 3.097656 -2.546875 3.0625 -2.117188 3.0625 -1.765625 C 3.0625 -1.410156 3.164062 -1.207031 3.375 -1.15625 C 3.644531 -1.082031 4.046875 -1.328125 4.578125 -1.890625 C 5.117188 -2.453125 5.695312 -3.40625 6.3125 -4.75 Z M 6.3125 -4.75 "/></g></g></g><g fill="#000000" fill-opacity="1"><g transform="translate(63.816243, 44.305919)"><g><path d="M 7.609375 -5.421875 C 7.703125 -5.515625 7.753906 -5.390625 7.765625 -5.046875 C 7.773438 -4.710938 7.46875 -4.238281 6.84375 -3.625 C 6.21875 -3.019531 5.570312 -2.734375 4.90625 -2.765625 C 4.757812 -2.773438 4.632812 -2.757812 4.53125 -2.71875 C 4.425781 -2.6875 4.335938 -2.601562 4.265625 -2.46875 C 4.191406 -2.351562 4.109375 -2.25 4.015625 -2.15625 C 4.015625 -2.15625 4.003906 -2.144531 3.984375 -2.125 C 3.578125 -1.6875 3.097656 -1.398438 2.546875 -1.265625 C 1.992188 -1.128906 1.46875 -1.171875 0.96875 -1.390625 C 0.476562 -1.617188 0.125 -2.046875 -0.09375 -2.671875 C -0.25 -3.242188 -0.257812 -3.8125 -0.125 -4.375 C -0.0078125 -4.863281 0.171875 -5.328125 0.421875 -5.765625 C 0.722656 -6.347656 1.113281 -6.757812 1.59375 -7 C 2.082031 -7.238281 2.632812 -7.367188 3.25 -7.390625 C 4.15625 -7.441406 4.726562 -7.015625 4.96875 -6.109375 C 5.113281 -5.585938 5.148438 -5.0625 5.078125 -4.53125 C 5.054688 -4.40625 5.035156 -4.28125 5.015625 -4.15625 C 4.984375 -4.0625 4.957031 -3.972656 4.9375 -3.890625 C 4.914062 -3.597656 5.039062 -3.46875 5.3125 -3.5 C 6.082031 -3.625 6.847656 -4.265625 7.609375 -5.421875 Z M 2.21875 -2.046875 C 2.6875 -2.253906 3.015625 -2.625 3.203125 -3.15625 C 2.421875 -3.644531 1.898438 -4.351562 1.640625 -5.28125 C 1.390625 -4.851562 1.238281 -4.347656 1.1875 -3.765625 C 1.132812 -3.179688 1.191406 -2.695312 1.359375 -2.3125 C 1.523438 -1.9375 1.8125 -1.847656 2.21875 -2.046875 Z M 3.5625 -4.171875 C 3.6875 -4.359375 3.757812 -4.585938 3.78125 -4.859375 C 3.800781 -5.128906 3.785156 -5.398438 3.734375 -5.671875 C 3.691406 -5.941406 3.625 -6.148438 3.53125 -6.296875 C 3.4375 -6.453125 3.34375 -6.5 3.25 -6.4375 C 3.070312 -6.28125 2.972656 -6.050781 2.953125 -5.75 C 2.929688 -5.457031 2.972656 -5.160156 3.078125 -4.859375 C 3.191406 -4.566406 3.351562 -4.335938 3.5625 -4.171875 Z M 3.5625 -4.171875 "/></g></g></g><g fill="#000000" fill-opacity="1"><g transform="translate(71.49972, 44.305919)"><g><path d="M 10.234375 -4.984375 C 10.378906 -4.972656 10.351562 -4.769531 10.15625 -4.375 C 9.96875 -3.988281 9.648438 -3.546875 9.203125 -3.046875 C 8.753906 -2.546875 8.253906 -2.113281 7.703125 -1.75 C 7.148438 -1.382812 6.601562 -1.21875 6.0625 -1.25 C 5.65625 -1.289062 5.351562 -1.414062 5.15625 -1.625 C 4.957031 -1.832031 4.820312 -2.054688 4.75 -2.296875 C 4.675781 -2.546875 4.628906 -2.765625 4.609375 -2.953125 C 4.597656 -3.085938 4.582031 -3.1875 4.5625 -3.25 C 4.539062 -3.3125 4.503906 -3.316406 4.453125 -3.265625 C 4.023438 -2.285156 3.289062 -1.796875 2.25 -1.796875 C 1.664062 -1.796875 1.191406 -2.050781 0.828125 -2.5625 C 0.460938 -3.082031 0.234375 -3.726562 0.140625 -4.5 C 0.046875 -5.28125 0.117188 -6.070312 0.359375 -6.875 C 0.421875 -7.132812 0.585938 -7.316406 0.859375 -7.421875 C 1.035156 -7.492188 1.222656 -7.484375 1.421875 -7.390625 C 1.617188 -7.304688 1.726562 -7.179688 1.75 -7.015625 C 1.75 -6.835938 1.734375 -6.660156 1.703125 -6.484375 C 1.671875 -6.347656 1.648438 -6.222656 1.640625 -6.109375 C 1.609375 -5.628906 1.613281 -5.101562 1.65625 -4.53125 C 1.695312 -3.96875 1.847656 -3.488281 2.109375 -3.09375 C 2.359375 -2.769531 2.632812 -2.726562 2.9375 -2.96875 C 3.238281 -3.207031 3.507812 -3.582031 3.75 -4.09375 C 3.925781 -4.488281 4.0625 -4.882812 4.15625 -5.28125 C 4.257812 -5.6875 4.328125 -6 4.359375 -6.21875 C 4.378906 -6.3125 4.390625 -6.367188 4.390625 -6.390625 C 4.441406 -6.566406 4.488281 -6.738281 4.53125 -6.90625 C 4.601562 -7.144531 4.675781 -7.378906 4.75 -7.609375 C 4.875 -8.054688 5.191406 -8.25 5.703125 -8.1875 C 6.015625 -8.15625 6.179688 -8 6.203125 -7.71875 C 6.234375 -7.34375 6.242188 -6.96875 6.234375 -6.59375 C 6.210938 -6.195312 6.191406 -5.8125 6.171875 -5.4375 C 6.140625 -4.882812 6.113281 -4.335938 6.09375 -3.796875 C 6.082031 -3.015625 6.238281 -2.554688 6.5625 -2.421875 C 6.894531 -2.296875 7.296875 -2.378906 7.765625 -2.671875 C 8.242188 -2.972656 8.695312 -3.378906 9.125 -3.890625 C 9.164062 -3.941406 9.21875 -4 9.28125 -4.0625 C 9.363281 -4.175781 9.46875 -4.300781 9.59375 -4.4375 C 9.71875 -4.582031 9.835938 -4.707031 9.953125 -4.8125 C 10.066406 -4.914062 10.160156 -4.972656 10.234375 -4.984375 Z M 10.234375 -4.984375 "/></g></g></g><g fill="#000000" fill-opacity="1"><g transform="translate(81.461315, 44.305919)"><g><path d="M 7.53125 -4.875 C 7.832031 -4.945312 8.222656 -5.15625 8.703125 -5.5 C 9.191406 -5.851562 9.410156 -5.859375 9.359375 -5.515625 C 9.316406 -5.179688 9.054688 -4.898438 8.578125 -4.671875 C 8.097656 -4.453125 7.660156 -4.296875 7.265625 -4.203125 C 7.148438 -4.171875 7.039062 -4.113281 6.9375 -4.03125 C 6.84375 -3.945312 6.78125 -3.859375 6.75 -3.765625 C 6.675781 -3.335938 6.53125 -2.941406 6.3125 -2.578125 C 5.75 -1.691406 4.945312 -1.34375 3.90625 -1.53125 C 3.488281 -1.632812 3.222656 -1.832031 3.109375 -2.125 C 2.992188 -2.425781 3.050781 -2.757812 3.28125 -3.125 C 3.601562 -3.550781 4.003906 -3.863281 4.484375 -4.0625 C 4.660156 -4.15625 4.820312 -4.222656 4.96875 -4.265625 C 5.039062 -4.296875 5.128906 -4.320312 5.234375 -4.34375 C 5.421875 -4.445312 5.519531 -4.644531 5.53125 -4.9375 C 5.550781 -5.238281 5.484375 -5.535156 5.328125 -5.828125 C 5.171875 -6.128906 4.957031 -6.332031 4.6875 -6.4375 C 4.414062 -6.550781 4.09375 -6.457031 3.71875 -6.15625 C 3.351562 -5.820312 3.082031 -5.429688 2.90625 -4.984375 C 2.46875 -4.085938 2.164062 -3.144531 2 -2.15625 C 1.707031 -0.40625 1.503906 1.335938 1.390625 3.078125 C 1.347656 3.890625 1.269531 4.695312 1.15625 5.5 C 1.113281 5.832031 1.078125 6.175781 1.046875 6.53125 C 1.023438 6.632812 0.992188 6.75 0.953125 6.875 C 0.898438 7.09375 0.738281 7.1875 0.46875 7.15625 C 0.195312 7.132812 0.0546875 7.007812 0.046875 6.78125 C 0.0234375 6.539062 0.0234375 6.296875 0.046875 6.046875 C 0.046875 5.984375 0.046875 5.929688 0.046875 5.890625 C 0.0546875 5.585938 0.0703125 5.28125 0.09375 4.96875 C 0.101562 4.425781 0.113281 3.882812 0.125 3.34375 C 0.15625 1.132812 0.144531 -1.085938 0.09375 -3.328125 C 0.0703125 -4.160156 0.0546875 -4.988281 0.046875 -5.8125 C 0.046875 -5.894531 0.046875 -5.984375 0.046875 -6.078125 C 0.015625 -6.359375 0.0234375 -6.640625 0.078125 -6.921875 C 0.140625 -7.203125 0.328125 -7.359375 0.640625 -7.390625 C 0.953125 -7.429688 1.144531 -7.289062 1.21875 -6.96875 C 1.21875 -6.9375 1.21875 -6.90625 1.21875 -6.875 C 1.320312 -6.25 1.414062 -5.429688 1.5 -4.421875 C 1.738281 -5.097656 2.03125 -5.644531 2.375 -6.0625 C 2.726562 -6.476562 3.140625 -6.785156 3.609375 -6.984375 C 4.003906 -7.160156 4.410156 -7.226562 4.828125 -7.1875 C 5.253906 -7.15625 5.640625 -6.984375 5.984375 -6.671875 C 6.328125 -6.367188 6.5625 -5.914062 6.6875 -5.3125 C 6.75 -5.039062 6.828125 -4.878906 6.921875 -4.828125 C 7.023438 -4.785156 7.226562 -4.800781 7.53125 -4.875 Z M 4.578125 -2.171875 C 4.835938 -2.316406 5.039062 -2.507812 5.1875 -2.75 C 5.332031 -2.988281 5.40625 -3.195312 5.40625 -3.375 C 5.414062 -3.5625 5.34375 -3.628906 5.1875 -3.578125 C 4.78125 -3.421875 4.5 -3.210938 4.34375 -2.953125 C 4.195312 -2.703125 4.144531 -2.488281 4.1875 -2.3125 C 4.238281 -2.132812 4.367188 -2.085938 4.578125 -2.171875 Z M 4.578125 -2.171875 "/></g></g></g><g fill="#000000" fill-opacity="1"><g transform="translate(90.551282, 44.305919)"><g><path d="M 16.5625 -5.859375 C 16.71875 -5.878906 16.878906 -5.882812 17.046875 -5.875 C 17.210938 -5.875 17.375 -5.832031 17.53125 -5.75 C 17.5625 -5.71875 17.585938 -5.664062 17.609375 -5.59375 C 17.628906 -5.53125 17.648438 -5.472656 17.671875 -5.421875 C 17.671875 -5.390625 17.65625 -5.351562 17.625 -5.3125 C 17.59375 -5.28125 17.5625 -5.25 17.53125 -5.21875 C 17.457031 -5.175781 17.382812 -5.144531 17.3125 -5.125 C 16.375 -4.945312 15.5 -4.632812 14.6875 -4.1875 C 13.882812 -3.75 13.125 -3.238281 12.40625 -2.65625 C 11.40625 -1.882812 10.488281 -1.035156 9.65625 -0.109375 C 8.820312 0.804688 8.035156 1.765625 7.296875 2.765625 C 5.890625 4.660156 4.582031 6.625 3.375 8.65625 C 3.101562 9.125 2.820312 9.582031 2.53125 10.03125 C 2.488281 10.113281 2.4375 10.191406 2.375 10.265625 C 2.238281 10.484375 2.09375 10.691406 1.9375 10.890625 C 1.519531 11.335938 1.023438 11.441406 0.453125 11.203125 C 0.222656 11.085938 0.0859375 10.929688 0.046875 10.734375 C 0.015625 10.546875 0.0195312 10.34375 0.0625 10.125 C 0.382812 7.257812 0.578125 4.394531 0.640625 1.53125 C 0.742188 -2.300781 0.8125 -6.132812 0.84375 -9.96875 C 0.882812 -13.800781 0.828125 -17.632812 0.671875 -21.46875 C 0.578125 -23.769531 0.445312 -26.070312 0.28125 -28.375 C 0.207031 -29.4375 0.132812 -30.5 0.0625 -31.5625 C 0.0625 -31.644531 0.0546875 -31.722656 0.046875 -31.796875 C 0.0234375 -32.015625 0.015625 -32.234375 0.015625 -32.453125 C 0.046875 -32.785156 0.234375 -32.972656 0.578125 -33.015625 C 0.785156 -33.046875 0.96875 -33.023438 1.125 -32.953125 C 1.289062 -32.878906 1.390625 -32.769531 1.421875 -32.625 C 1.546875 -32.082031 1.640625 -31.539062 1.703125 -31 C 1.703125 -30.84375 1.707031 -30.679688 1.71875 -30.515625 C 1.9375 -27.523438 2.125 -24.53125 2.28125 -21.53125 C 2.445312 -18.570312 2.523438 -15.609375 2.515625 -12.640625 C 2.503906 -9.671875 2.460938 -6.695312 2.390625 -3.71875 C 2.347656 -1.28125 2.285156 1.160156 2.203125 3.609375 C 2.179688 4.171875 2.148438 4.734375 2.109375 5.296875 C 2.078125 5.617188 2.054688 5.941406 2.046875 6.265625 C 2.035156 6.535156 2.019531 6.816406 2 7.109375 C 2 7.242188 1.992188 7.375 1.984375 7.5 C 2.023438 7.519531 2.0625 7.535156 2.09375 7.546875 C 2.132812 7.546875 2.175781 7.550781 2.21875 7.5625 C 2.289062 7.445312 2.363281 7.335938 2.4375 7.234375 C 2.625 6.929688 2.820312 6.628906 3.03125 6.328125 C 4.375 4.171875 5.863281 2.128906 7.5 0.203125 C 8.320312 -0.765625 9.203125 -1.664062 10.140625 -2.5 C 11.078125 -3.34375 12.101562 -4.082031 13.21875 -4.71875 C 13.75 -5.007812 14.285156 -5.253906 14.828125 -5.453125 C 15.367188 -5.660156 15.945312 -5.796875 16.5625 -5.859375 Z M 16.5625 -5.859375 "/></g></g></g><g fill="#000000" fill-opacity="1"><g transform="translate(106.891601, 44.305919)"><g><path d="M 7.265625 -4.765625 C 7.628906 -5.109375 7.785156 -5.191406 7.734375 -5.015625 C 7.691406 -4.847656 7.492188 -4.535156 7.140625 -4.078125 C 6.785156 -3.617188 6.347656 -3.117188 5.828125 -2.578125 C 5.304688 -2.046875 4.753906 -1.582031 4.171875 -1.1875 C 3.597656 -0.800781 3.050781 -0.585938 2.53125 -0.546875 C 1.882812 -0.546875 1.367188 -0.734375 0.984375 -1.109375 C 0.597656 -1.492188 0.320312 -2 0.15625 -2.625 C -0.0078125 -3.25 -0.078125 -3.925781 -0.046875 -4.65625 C -0.015625 -5.46875 0.015625 -6.28125 0.046875 -7.09375 C 0.0546875 -7.5 0.0664062 -7.894531 0.078125 -8.28125 C 0.109375 -8.9375 0.132812 -9.59375 0.15625 -10.25 C 0.164062 -10.457031 0.128906 -10.628906 0.046875 -10.765625 C -0.0234375 -10.898438 -0.164062 -10.976562 -0.375 -11 C -0.601562 -11.007812 -0.894531 -11.015625 -1.25 -11.015625 C -1.550781 -11.015625 -1.8125 -11.015625 -2.03125 -11.015625 C -2.332031 -11.046875 -2.535156 -11.125 -2.640625 -11.25 C -2.742188 -11.382812 -2.660156 -11.515625 -2.390625 -11.640625 C -2.210938 -11.710938 -1.992188 -11.753906 -1.734375 -11.765625 C -1.472656 -11.773438 -1.210938 -11.769531 -0.953125 -11.75 C -0.796875 -11.738281 -0.660156 -11.734375 -0.546875 -11.734375 C -0.148438 -11.734375 0.0859375 -11.789062 0.171875 -11.90625 C 0.253906 -12.03125 0.304688 -12.273438 0.328125 -12.640625 C 0.347656 -13.023438 0.367188 -13.414062 0.390625 -13.8125 C 0.398438 -14.007812 0.414062 -14.210938 0.4375 -14.421875 C 0.4375 -14.722656 0.515625 -14.992188 0.671875 -15.234375 C 0.847656 -15.472656 1.066406 -15.566406 1.328125 -15.515625 C 1.554688 -15.453125 1.6875 -15.304688 1.71875 -15.078125 C 1.738281 -14.691406 1.75 -14.300781 1.75 -13.90625 C 1.757812 -13.695312 1.757812 -13.484375 1.75 -13.265625 C 1.75 -13.023438 1.753906 -12.78125 1.765625 -12.53125 C 1.753906 -12.1875 1.789062 -11.96875 1.875 -11.875 C 1.96875 -11.789062 2.195312 -11.75 2.5625 -11.75 C 3.15625 -11.75 3.742188 -11.75 4.328125 -11.75 C 4.585938 -11.75 5.367188 -11.765625 6.671875 -11.796875 C 7.984375 -11.835938 8.691406 -11.734375 8.796875 -11.484375 C 8.898438 -11.242188 8.070312 -11.101562 6.3125 -11.0625 C 5.25 -11 4.429688 -10.96875 3.859375 -10.96875 C 3.460938 -10.988281 3.109375 -11 2.796875 -11 C 2.273438 -11 1.953125 -10.90625 1.828125 -10.71875 C 1.710938 -10.539062 1.660156 -10.175781 1.671875 -9.625 C 1.660156 -9.15625 1.640625 -8.585938 1.609375 -7.921875 C 1.515625 -6.554688 1.46875 -5.164062 1.46875 -3.75 C 1.507812 -2.769531 1.6875 -2.132812 2 -1.84375 C 2.3125 -1.550781 2.722656 -1.492188 3.234375 -1.671875 C 3.742188 -1.859375 4.289062 -2.179688 4.875 -2.640625 C 5.46875 -3.109375 6.054688 -3.613281 6.640625 -4.15625 C 6.765625 -4.3125 6.914062 -4.460938 7.09375 -4.609375 C 7.15625 -4.660156 7.210938 -4.710938 7.265625 -4.765625 Z M 7.265625 -4.765625 "/></g></g></g><g fill="#000000" fill-opacity="1"><g transform="translate(114.337356, 44.305919)"><g><path d="M 15.53125 -4.828125 C 15.59375 -4.941406 15.6875 -5 15.8125 -5 C 15.9375 -5.007812 16.039062 -4.9375 16.125 -4.78125 C 16.15625 -4.738281 16.125 -4.625 16.03125 -4.4375 C 15.9375 -4.257812 15.804688 -4.054688 15.640625 -3.828125 C 15.484375 -3.609375 15.332031 -3.40625 15.1875 -3.21875 C 15.039062 -3.03125 14.941406 -2.90625 14.890625 -2.84375 C 14.234375 -2.113281 13.570312 -1.578125 12.90625 -1.234375 C 12.25 -0.898438 11.535156 -0.828125 10.765625 -1.015625 C 9.992188 -1.210938 9.128906 -1.765625 8.171875 -2.671875 C 8.023438 -2.828125 7.878906 -2.988281 7.734375 -3.15625 C 7.691406 -3.195312 7.65625 -3.238281 7.625 -3.28125 C 7.46875 -3.457031 7.289062 -3.476562 7.09375 -3.34375 C 6.894531 -3.195312 6.695312 -3.050781 6.5 -2.90625 C 6.320312 -2.78125 6.140625 -2.660156 5.953125 -2.546875 C 5.335938 -2.117188 4.691406 -1.757812 4.015625 -1.46875 C 3.285156 -1.144531 2.519531 -1.019531 1.71875 -1.09375 C 0.46875 -1.238281 -0.175781 -1.929688 -0.21875 -3.171875 C -0.226562 -4.035156 -0.0390625 -4.8125 0.34375 -5.5 C 0.726562 -6.195312 1.265625 -6.707031 1.953125 -7.03125 C 2.640625 -7.363281 3.4375 -7.429688 4.34375 -7.234375 C 4.4375 -7.210938 4.566406 -7.179688 4.734375 -7.140625 C 4.828125 -7.109375 4.945312 -7.078125 5.09375 -7.046875 C 5.007812 -7.253906 4.929688 -7.4375 4.859375 -7.59375 C 4.734375 -7.851562 4.617188 -8.09375 4.515625 -8.3125 C 3.910156 -9.550781 3.421875 -10.960938 3.046875 -12.546875 C 2.671875 -14.140625 2.484375 -15.769531 2.484375 -17.4375 C 2.492188 -19.101562 2.773438 -20.65625 3.328125 -22.09375 C 3.878906 -23.539062 4.796875 -24.726562 6.078125 -25.65625 C 6.890625 -26.207031 7.726562 -26.503906 8.59375 -26.546875 C 9.457031 -26.597656 10.273438 -26.410156 11.046875 -25.984375 C 11.816406 -25.566406 12.441406 -24.929688 12.921875 -24.078125 C 13.546875 -22.921875 13.929688 -21.695312 14.078125 -20.40625 C 14.335938 -18.332031 14.289062 -16.394531 13.9375 -14.59375 C 13.59375 -12.789062 12.976562 -11.085938 12.09375 -9.484375 C 11.207031 -7.878906 10.082031 -6.316406 8.71875 -4.796875 C 8.582031 -4.648438 8.507812 -4.535156 8.5 -4.453125 C 8.5 -4.367188 8.5625 -4.25 8.6875 -4.09375 C 8.96875 -3.726562 9.269531 -3.375 9.59375 -3.03125 C 9.925781 -2.6875 10.289062 -2.398438 10.6875 -2.171875 C 11.257812 -1.921875 11.867188 -1.914062 12.515625 -2.15625 C 13.160156 -2.394531 13.757812 -2.765625 14.3125 -3.265625 C 14.863281 -3.765625 15.269531 -4.285156 15.53125 -4.828125 Z M 5.828125 -3.96875 C 5.992188 -4.101562 6.003906 -4.265625 5.859375 -4.453125 C 5.773438 -4.554688 5.691406 -4.664062 5.609375 -4.78125 C 5.367188 -5.070312 5.097656 -5.367188 4.796875 -5.671875 C 4.492188 -5.984375 4.175781 -6.21875 3.84375 -6.375 C 3.519531 -6.53125 3.191406 -6.546875 2.859375 -6.421875 C 2.390625 -6.203125 2.003906 -5.816406 1.703125 -5.265625 C 1.410156 -4.710938 1.238281 -4.144531 1.1875 -3.5625 C 1.132812 -2.976562 1.242188 -2.535156 1.515625 -2.234375 C 1.796875 -1.929688 2.269531 -1.90625 2.9375 -2.15625 C 3.988281 -2.613281 4.953125 -3.21875 5.828125 -3.96875 Z M 8.015625 -6.109375 C 9.410156 -7.753906 10.453125 -9.367188 11.140625 -10.953125 C 11.835938 -12.546875 12.304688 -14.410156 12.546875 -16.546875 C 12.617188 -17.066406 12.648438 -17.75 12.640625 -18.59375 C 12.640625 -19.4375 12.566406 -20.316406 12.421875 -21.234375 C 12.273438 -22.160156 12.015625 -23 11.640625 -23.75 C 11.265625 -24.507812 10.738281 -25.054688 10.0625 -25.390625 C 9.382812 -25.722656 8.515625 -25.722656 7.453125 -25.390625 C 6.296875 -24.710938 5.4375 -23.8125 4.875 -22.6875 C 4.3125 -21.5625 3.988281 -20.304688 3.90625 -18.921875 C 3.832031 -17.546875 3.925781 -16.132812 4.1875 -14.6875 C 4.445312 -13.25 4.804688 -11.882812 5.265625 -10.59375 C 5.734375 -9.3125 6.238281 -8.191406 6.78125 -7.234375 C 6.832031 -7.109375 6.890625 -6.988281 6.953125 -6.875 C 7.109375 -6.476562 7.335938 -6.125 7.640625 -5.8125 C 7.691406 -5.851562 7.738281 -5.890625 7.78125 -5.921875 C 7.863281 -5.972656 7.941406 -6.035156 8.015625 -6.109375 Z M 8.015625 -6.109375 "/></g></g></g></g></g></g><g mask="url(#e862e83313)"><g transform="matrix(1, 0, 0, 1, 77, 242)"><g clip-path="url(#90e289de0d)"><g fill="#000000" fill-opacity="1"><g transform="translate(0.944306, 5.615794)"><g><path d="M 4.09375 -3.6875 L 4.09375 0 L 3.203125 0 L 3.203125 -2.0625 L 2.109375 -1.359375 L 1.0625 -2.0625 L 1.0625 0 L 0.171875 0 L 0.171875 -3.6875 L 2.125 -2.421875 Z M 4.09375 -3.6875 "/></g></g></g><g fill="#000000" fill-opacity="1"><g transform="translate(5.209496, 5.615794)"><g><path d="M 2.265625 -2.9375 L 3.0625 -2.9375 L 3.0625 0 L 2.265625 0 L 2.265625 -0.328125 C 2.109375 -0.117188 1.863281 -0.015625 1.53125 -0.015625 C 1.132812 -0.00390625 0.789062 -0.144531 0.5 -0.4375 C 0.207031 -0.71875 0.0625 -1.0625 0.0625 -1.46875 C 0.0625 -1.863281 0.203125 -2.207031 0.484375 -2.5 C 0.765625 -2.78125 1.109375 -2.925781 1.515625 -2.9375 C 1.847656 -2.9375 2.097656 -2.828125 2.265625 -2.609375 Z M 2.03125 -0.96875 C 2.164062 -1.101562 2.234375 -1.269531 2.234375 -1.46875 C 2.234375 -1.675781 2.164062 -1.847656 2.03125 -1.984375 C 1.882812 -2.128906 1.710938 -2.195312 1.515625 -2.1875 C 1.316406 -2.1875 1.148438 -2.117188 1.015625 -1.984375 C 0.867188 -1.835938 0.796875 -1.664062 0.796875 -1.46875 C 0.796875 -1.269531 0.867188 -1.097656 1.015625 -0.953125 C 1.148438 -0.816406 1.320312 -0.75 1.53125 -0.75 C 1.726562 -0.757812 1.894531 -0.832031 2.03125 -0.96875 Z M 2.03125 -0.96875 "/></g></g></g><g fill="#000000" fill-opacity="1"><g transform="translate(8.442417, 5.615794)"><g><path d="M 2.1875 0 L 1.234375 -1.140625 L 0.96875 -0.875 L 0.96875 0 L 0.171875 0 L 0.171875 -3.9375 L 0.96875 -3.9375 L 0.96875 -1.984375 L 1.890625 -2.921875 L 3.015625 -2.921875 L 1.796875 -1.703125 L 3.234375 0 Z M 2.1875 0 "/></g></g></g><g fill="#000000" fill-opacity="1"><g transform="translate(11.181217, 5.615794)"><g><path d="M 2.984375 -1.328125 C 2.984375 -1.253906 2.984375 -1.207031 2.984375 -1.1875 L 0.84375 -1.203125 C 0.875 -1.109375 0.929688 -1.023438 1.015625 -0.953125 C 1.160156 -0.804688 1.332031 -0.734375 1.53125 -0.734375 C 1.726562 -0.742188 1.894531 -0.816406 2.03125 -0.953125 L 2.0625 -0.96875 L 2.796875 -0.75 C 2.628906 -0.488281 2.457031 -0.304688 2.28125 -0.203125 C 2.082031 -0.0664062 1.832031 0 1.53125 0 C 1.132812 0 0.789062 -0.140625 0.5 -0.421875 C 0.207031 -0.703125 0.0625 -1.046875 0.0625 -1.453125 C 0.0625 -1.847656 0.203125 -2.191406 0.484375 -2.484375 C 0.765625 -2.773438 1.109375 -2.921875 1.515625 -2.921875 C 1.910156 -2.921875 2.253906 -2.78125 2.546875 -2.5 C 2.835938 -2.21875 2.984375 -1.875 2.984375 -1.46875 Z M 1.515625 -2.171875 C 1.316406 -2.171875 1.148438 -2.101562 1.015625 -1.96875 C 0.941406 -1.882812 0.890625 -1.804688 0.859375 -1.734375 L 2.1875 -1.734375 C 2.15625 -1.804688 2.101562 -1.882812 2.03125 -1.96875 C 1.882812 -2.101562 1.710938 -2.171875 1.515625 -2.171875 Z M 1.515625 -2.171875 "/></g></g></g><g fill="#000000" fill-opacity="1"><g transform="translate(14.22697, 5.615794)"><g/></g></g><g fill="#000000" fill-opacity="1"><g transform="translate(15.701633, 5.615794)"><g><path d="M 2.28125 -2.921875 L 2.28125 -2.125 L 1.625 -2.125 L 1.625 0 L 0.828125 0 L 0.828125 -2.125 L 0.171875 -2.125 L 0.171875 -2.921875 L 0.828125 -2.921875 L 0.828125 -3.9375 L 1.625 -3.9375 L 1.625 -2.921875 Z M 2.28125 -2.921875 "/></g></g></g><g fill="#000000" fill-opacity="1"><g transform="translate(18.146182, 5.615794)"><g><path d="M 3.140625 0 L 2.40625 0 L 2.40625 -1.453125 C 2.40625 -1.648438 2.332031 -1.820312 2.1875 -1.96875 C 2.050781 -2.101562 1.882812 -2.171875 1.6875 -2.171875 C 1.488281 -2.171875 1.316406 -2.097656 1.171875 -1.953125 C 1.023438 -1.804688 0.957031 -1.640625 0.96875 -1.453125 L 0.96875 0 L 0.171875 0 L 0.171875 -3.6875 L 0.96875 -3.6875 L 0.96875 -2.546875 C 1.144531 -2.765625 1.378906 -2.882812 1.671875 -2.90625 C 2.085938 -2.9375 2.4375 -2.832031 2.71875 -2.59375 C 3 -2.320312 3.140625 -1.941406 3.140625 -1.453125 Z M 3.140625 0 "/></g></g></g><g fill="#000000" fill-opacity="1"><g transform="translate(21.464179, 5.615794)"><g><path d="M 2.984375 -1.328125 C 2.984375 -1.253906 2.984375 -1.207031 2.984375 -1.1875 L 0.84375 -1.203125 C 0.875 -1.109375 0.929688 -1.023438 1.015625 -0.953125 C 1.160156 -0.804688 1.332031 -0.734375 1.53125 -0.734375 C 1.726562 -0.742188 1.894531 -0.816406 2.03125 -0.953125 L 2.0625 -0.96875 L 2.796875 -0.75 C 2.628906 -0.488281 2.457031 -0.304688 2.28125 -0.203125 C 2.082031 -0.0664062 1.832031 0 1.53125 0 C 1.132812 0 0.789062 -0.140625 0.5 -0.421875 C 0.207031 -0.703125 0.0625 -1.046875 0.0625 -1.453125 C 0.0625 -1.847656 0.203125 -2.191406 0.484375 -2.484375 C 0.765625 -2.773438 1.109375 -2.921875 1.515625 -2.921875 C 1.910156 -2.921875 2.253906 -2.78125 2.546875 -2.5 C 2.835938 -2.21875 2.984375 -1.875 2.984375 -1.46875 Z M 1.515625 -2.171875 C 1.316406 -2.171875 1.148438 -2.101562 1.015625 -1.96875 C 0.941406 -1.882812 0.890625 -1.804688 0.859375 -1.734375 L 2.1875 -1.734375 C 2.15625 -1.804688 2.101562 -1.882812 2.03125 -1.96875 C 1.882812 -2.101562 1.710938 -2.171875 1.515625 -2.171875 Z M 1.515625 -2.171875 "/></g></g></g><g fill="#000000" fill-opacity="1"><g transform="translate(24.509932, 5.615794)"><g/></g></g><g fill="#000000" fill-opacity="1"><g transform="translate(25.984595, 5.615794)"><g><path d="M 4.234375 -2.953125 L 2.65625 0 L 2.640625 0 L 2.125 -0.953125 L 1.609375 0 L 0.03125 -2.953125 L 0.84375 -2.953125 L 1.609375 -1.484375 L 1.734375 -1.703125 L 1.0625 -2.953125 L 1.875 -2.953125 L 2.65625 -1.484375 L 3.421875 -2.953125 Z M 4.234375 -2.953125 "/></g></g></g><g fill="#000000" fill-opacity="1"><g transform="translate(29.818297, 5.615794)"><g><path d="M 1.515625 -2.921875 C 1.921875 -2.921875 2.265625 -2.78125 2.546875 -2.5 C 2.835938 -2.207031 2.984375 -1.863281 2.984375 -1.46875 C 2.984375 -1.0625 2.84375 -0.71875 2.5625 -0.4375 C 2.269531 -0.144531 1.925781 0 1.53125 0 C 1.125 0 0.78125 -0.140625 0.5 -0.421875 C 0.207031 -0.703125 0.0625 -1.046875 0.0625 -1.453125 C 0.0625 -1.859375 0.203125 -2.203125 0.484375 -2.484375 C 0.765625 -2.773438 1.109375 -2.921875 1.515625 -2.921875 Z M 2.03125 -0.953125 C 2.164062 -1.085938 2.234375 -1.257812 2.234375 -1.46875 C 2.234375 -1.664062 2.164062 -1.832031 2.03125 -1.96875 C 1.882812 -2.101562 1.710938 -2.171875 1.515625 -2.171875 C 1.316406 -2.171875 1.148438 -2.101562 1.015625 -1.96875 C 0.867188 -1.820312 0.796875 -1.648438 0.796875 -1.453125 C 0.796875 -1.253906 0.867188 -1.085938 1.015625 -0.953125 C 1.148438 -0.804688 1.320312 -0.734375 1.53125 -0.734375 C 1.726562 -0.742188 1.894531 -0.816406 2.03125 -0.953125 Z M 2.03125 -0.953125 "/></g></g></g><g fill="#000000" fill-opacity="1"><g transform="translate(32.858385, 5.615794)"><g><path d="M 0.96875 -2.484375 C 1.03125 -2.660156 1.132812 -2.785156 1.28125 -2.859375 C 1.4375 -2.929688 1.660156 -2.96875 1.953125 -2.96875 L 1.953125 -2.15625 C 1.660156 -2.15625 1.421875 -2.054688 1.234375 -1.859375 C 1.054688 -1.691406 0.96875 -1.503906 0.96875 -1.296875 L 0.96875 0 L 0.171875 0 L 0.171875 -2.921875 L 0.96875 -2.921875 Z M 0.96875 -2.484375 "/></g></g></g><g fill="#000000" fill-opacity="1"><g transform="translate(34.894564, 5.615794)"><g><path d="M 0.96875 -3.9375 L 0.96875 0 L 0.171875 0 L 0.171875 -3.9375 Z M 0.96875 -3.9375 "/></g></g></g><g fill="#000000" fill-opacity="1"><g transform="translate(36.028925, 5.615794)"><g><path d="M 2.453125 0 L 2.453125 -0.328125 C 2.179688 -0.109375 1.875 0 1.53125 0 C 1.132812 0 0.789062 -0.140625 0.5 -0.421875 C 0.207031 -0.703125 0.0625 -1.046875 0.0625 -1.453125 C 0.0625 -1.847656 0.203125 -2.191406 0.484375 -2.484375 C 0.765625 -2.773438 1.109375 -2.921875 1.515625 -2.921875 C 1.867188 -2.921875 2.179688 -2.8125 2.453125 -2.59375 L 2.453125 -3.953125 L 3.25 -3.953125 L 3.25 0 Z M 2.03125 -0.953125 C 2.175781 -1.085938 2.25 -1.257812 2.25 -1.46875 C 2.238281 -1.664062 2.164062 -1.832031 2.03125 -1.96875 C 1.882812 -2.101562 1.710938 -2.171875 1.515625 -2.171875 C 1.316406 -2.171875 1.148438 -2.101562 1.015625 -1.96875 C 0.867188 -1.8125 0.800781 -1.640625 0.8125 -1.453125 C 0.8125 -1.253906 0.878906 -1.085938 1.015625 -0.953125 C 1.148438 -0.804688 1.320312 -0.734375 1.53125 -0.734375 C 1.726562 -0.742188 1.894531 -0.816406 2.03125 -0.953125 Z M 2.03125 -0.953125 "/></g></g></g><g fill="#000000" fill-opacity="1"><g transform="translate(39.449015, 5.615794)"><g/></g></g><g fill="#000000" fill-opacity="1"><g transform="translate(40.923677, 5.615794)"><g><path d="M 1.90625 -2.921875 C 2.3125 -2.921875 2.65625 -2.773438 2.9375 -2.484375 C 3.226562 -2.191406 3.367188 -1.847656 3.359375 -1.453125 C 3.359375 -1.046875 3.210938 -0.703125 2.921875 -0.421875 C 2.640625 -0.140625 2.296875 0 1.890625 0 C 1.546875 0 1.238281 -0.109375 0.96875 -0.328125 L 0.96875 0 L 0.171875 0 L 0.171875 -3.953125 L 0.96875 -3.953125 L 0.96875 -2.578125 C 1.238281 -2.804688 1.550781 -2.921875 1.90625 -2.921875 Z M 2.40625 -0.953125 C 2.539062 -1.085938 2.613281 -1.253906 2.625 -1.453125 C 2.625 -1.648438 2.554688 -1.820312 2.421875 -1.96875 C 2.273438 -2.101562 2.101562 -2.171875 1.90625 -2.171875 C 1.707031 -2.171875 1.535156 -2.101562 1.390625 -1.96875 C 1.253906 -1.832031 1.1875 -1.664062 1.1875 -1.46875 C 1.175781 -1.269531 1.242188 -1.097656 1.390625 -0.953125 C 1.523438 -0.816406 1.695312 -0.742188 1.90625 -0.734375 C 2.101562 -0.734375 2.269531 -0.804688 2.40625 -0.953125 Z M 2.40625 -0.953125 "/></g></g></g><g fill="#000000" fill-opacity="1"><g transform="translate(44.377801, 5.615794)"><g><path d="M 2.984375 -1.328125 C 2.984375 -1.253906 2.984375 -1.207031 2.984375 -1.1875 L 0.84375 -1.203125 C 0.875 -1.109375 0.929688 -1.023438 1.015625 -0.953125 C 1.160156 -0.804688 1.332031 -0.734375 1.53125 -0.734375 C 1.726562 -0.742188 1.894531 -0.816406 2.03125 -0.953125 L 2.0625 -0.96875 L 2.796875 -0.75 C 2.628906 -0.488281 2.457031 -0.304688 2.28125 -0.203125 C 2.082031 -0.0664062 1.832031 0 1.53125 0 C 1.132812 0 0.789062 -0.140625 0.5 -0.421875 C 0.207031 -0.703125 0.0625 -1.046875 0.0625 -1.453125 C 0.0625 -1.847656 0.203125 -2.191406 0.484375 -2.484375 C 0.765625 -2.773438 1.109375 -2.921875 1.515625 -2.921875 C 1.910156 -2.921875 2.253906 -2.78125 2.546875 -2.5 C 2.835938 -2.21875 2.984375 -1.875 2.984375 -1.46875 Z M 1.515625 -2.171875 C 1.316406 -2.171875 1.148438 -2.101562 1.015625 -1.96875 C 0.941406 -1.882812 0.890625 -1.804688 0.859375 -1.734375 L 2.1875 -1.734375 C 2.15625 -1.804688 2.101562 -1.882812 2.03125 -1.96875 C 1.882812 -2.101562 1.710938 -2.171875 1.515625 -2.171875 Z M 1.515625 -2.171875 "/></g></g></g><g fill="#000000" fill-opacity="1"><g transform="translate(47.224839, 5.615794)"><g><path d="M 2.28125 -2.921875 L 2.28125 -2.125 L 1.625 -2.125 L 1.625 0 L 0.828125 0 L 0.828125 -2.125 L 0.171875 -2.125 L 0.171875 -2.921875 L 0.828125 -2.921875 L 0.828125 -3.9375 L 1.625 -3.9375 L 1.625 -2.921875 Z M 2.28125 -2.921875 "/></g></g></g><g fill="#000000" fill-opacity="1"><g transform="translate(49.669389, 5.615794)"><g><path d="M 2.28125 -2.921875 L 2.28125 -2.125 L 1.625 -2.125 L 1.625 0 L 0.828125 0 L 0.828125 -2.125 L 0.171875 -2.125 L 0.171875 -2.921875 L 0.828125 -2.921875 L 0.828125 -3.9375 L 1.625 -3.9375 L 1.625 -2.921875 Z M 2.28125 -2.921875 "/></g></g></g><g fill="#000000" fill-opacity="1"><g transform="translate(51.943616, 5.615794)"><g><path d="M 2.984375 -1.328125 C 2.984375 -1.253906 2.984375 -1.207031 2.984375 -1.1875 L 0.84375 -1.203125 C 0.875 -1.109375 0.929688 -1.023438 1.015625 -0.953125 C 1.160156 -0.804688 1.332031 -0.734375 1.53125 -0.734375 C 1.726562 -0.742188 1.894531 -0.816406 2.03125 -0.953125 L 2.0625 -0.96875 L 2.796875 -0.75 C 2.628906 -0.488281 2.457031 -0.304688 2.28125 -0.203125 C 2.082031 -0.0664062 1.832031 0 1.53125 0 C 1.132812 0 0.789062 -0.140625 0.5 -0.421875 C 0.207031 -0.703125 0.0625 -1.046875 0.0625 -1.453125 C 0.0625 -1.847656 0.203125 -2.191406 0.484375 -2.484375 C 0.765625 -2.773438 1.109375 -2.921875 1.515625 -2.921875 C 1.910156 -2.921875 2.253906 -2.78125 2.546875 -2.5 C 2.835938 -2.21875 2.984375 -1.875 2.984375 -1.46875 Z M 1.515625 -2.171875 C 1.316406 -2.171875 1.148438 -2.101562 1.015625 -1.96875 C 0.941406 -1.882812 0.890625 -1.804688 0.859375 -1.734375 L 2.1875 -1.734375 C 2.15625 -1.804688 2.101562 -1.882812 2.03125 -1.96875 C 1.882812 -2.101562 1.710938 -2.171875 1.515625 -2.171875 Z M 1.515625 -2.171875 "/></g></g></g><g fill="#000000" fill-opacity="1"><g transform="translate(54.989369, 5.615794)"><g><path d="M 0.96875 -2.484375 C 1.03125 -2.660156 1.132812 -2.785156 1.28125 -2.859375 C 1.4375 -2.929688 1.660156 -2.96875 1.953125 -2.96875 L 1.953125 -2.15625 C 1.660156 -2.15625 1.421875 -2.054688 1.234375 -1.859375 C 1.054688 -1.691406 0.96875 -1.503906 0.96875 -1.296875 L 0.96875 0 L 0.171875 0 L 0.171875 -2.921875 L 0.96875 -2.921875 Z M 0.96875 -2.484375 "/></g></g></g><g fill="#000000" fill-opacity="1"><g transform="translate(57.025548, 5.615794)"><g/></g></g><g fill="#000000" fill-opacity="1"><g transform="translate(58.50021, 5.615794)"><g><path d="M 1.78125 -3.171875 C 1.695312 -3.171875 1.625 -3.140625 1.5625 -3.078125 C 1.5 -3.015625 1.46875 -2.9375 1.46875 -2.84375 L 1.46875 -2.53125 L 2.0625 -2.53125 L 2.0625 -1.734375 L 1.46875 -1.734375 L 1.46875 0 L 0.6875 0 L 0.6875 -1.75 L 0.171875 -1.75 L 0.171875 -2.53125 L 0.6875 -2.53125 L 0.6875 -3.171875 C 0.6875 -3.390625 0.757812 -3.570312 0.90625 -3.71875 C 1.0625 -3.875 1.25 -3.953125 1.46875 -3.953125 L 2.0625 -3.953125 L 2.0625 -3.171875 Z M 1.78125 -3.171875 "/></g></g></g><g fill="#000000" fill-opacity="1"><g transform="translate(60.729222, 5.615794)"><g><path d="M 1.515625 -2.921875 C 1.921875 -2.921875 2.265625 -2.78125 2.546875 -2.5 C 2.835938 -2.207031 2.984375 -1.863281 2.984375 -1.46875 C 2.984375 -1.0625 2.84375 -0.71875 2.5625 -0.4375 C 2.269531 -0.144531 1.925781 0 1.53125 0 C 1.125 0 0.78125 -0.140625 0.5 -0.421875 C 0.207031 -0.703125 0.0625 -1.046875 0.0625 -1.453125 C 0.0625 -1.859375 0.203125 -2.203125 0.484375 -2.484375 C 0.765625 -2.773438 1.109375 -2.921875 1.515625 -2.921875 Z M 2.03125 -0.953125 C 2.164062 -1.085938 2.234375 -1.257812 2.234375 -1.46875 C 2.234375 -1.664062 2.164062 -1.832031 2.03125 -1.96875 C 1.882812 -2.101562 1.710938 -2.171875 1.515625 -2.171875 C 1.316406 -2.171875 1.148438 -2.101562 1.015625 -1.96875 C 0.867188 -1.820312 0.796875 -1.648438 0.796875 -1.453125 C 0.796875 -1.253906 0.867188 -1.085938 1.015625 -0.953125 C 1.148438 -0.804688 1.320312 -0.734375 1.53125 -0.734375 C 1.726562 -0.742188 1.894531 -0.816406 2.03125 -0.953125 Z M 2.03125 -0.953125 "/></g></g></g><g fill="#000000" fill-opacity="1"><g transform="translate(63.76931, 5.615794)"><g><path d="M 0.96875 -2.484375 C 1.03125 -2.660156 1.132812 -2.785156 1.28125 -2.859375 C 1.4375 -2.929688 1.660156 -2.96875 1.953125 -2.96875 L 1.953125 -2.15625 C 1.660156 -2.15625 1.421875 -2.054688 1.234375 -1.859375 C 1.054688 -1.691406 0.96875 -1.503906 0.96875 -1.296875 L 0.96875 0 L 0.171875 0 L 0.171875 -2.921875 L 0.96875 -2.921875 Z M 0.96875 -2.484375 "/></g></g></g><g fill="#000000" fill-opacity="1"><g transform="translate(65.805489, 5.615794)"><g/></g></g><g fill="#000000" fill-opacity="1"><g transform="translate(67.280151, 5.615794)"><g><path d="M 2.984375 -1.328125 C 2.984375 -1.253906 2.984375 -1.207031 2.984375 -1.1875 L 0.84375 -1.203125 C 0.875 -1.109375 0.929688 -1.023438 1.015625 -0.953125 C 1.160156 -0.804688 1.332031 -0.734375 1.53125 -0.734375 C 1.726562 -0.742188 1.894531 -0.816406 2.03125 -0.953125 L 2.0625 -0.96875 L 2.796875 -0.75 C 2.628906 -0.488281 2.457031 -0.304688 2.28125 -0.203125 C 2.082031 -0.0664062 1.832031 0 1.53125 0 C 1.132812 0 0.789062 -0.140625 0.5 -0.421875 C 0.207031 -0.703125 0.0625 -1.046875 0.0625 -1.453125 C 0.0625 -1.847656 0.203125 -2.191406 0.484375 -2.484375 C 0.765625 -2.773438 1.109375 -2.921875 1.515625 -2.921875 C 1.910156 -2.921875 2.253906 -2.78125 2.546875 -2.5 C 2.835938 -2.21875 2.984375 -1.875 2.984375 -1.46875 Z M 1.515625 -2.171875 C 1.316406 -2.171875 1.148438 -2.101562 1.015625 -1.96875 C 0.941406 -1.882812 0.890625 -1.804688 0.859375 -1.734375 L 2.1875 -1.734375 C 2.15625 -1.804688 2.101562 -1.882812 2.03125 -1.96875 C 1.882812 -2.101562 1.710938 -2.171875 1.515625 -2.171875 Z M 1.515625 -2.171875 "/></g></g></g><g fill="#000000" fill-opacity="1"><g transform="translate(69.922798, 5.615794)"><g><path d="M 3.546875 -2.921875 L 2.1875 0 L 1.59375 0 L 0.171875 -2.921875 L 1.09375 -2.921875 L 1.890625 -1.28125 L 2.625 -2.921875 Z M 3.546875 -2.921875 "/></g></g></g><g fill="#000000" fill-opacity="1"><g transform="translate(73.172267, 5.615794)"><g><path d="M 2.984375 -1.328125 C 2.984375 -1.253906 2.984375 -1.207031 2.984375 -1.1875 L 0.84375 -1.203125 C 0.875 -1.109375 0.929688 -1.023438 1.015625 -0.953125 C 1.160156 -0.804688 1.332031 -0.734375 1.53125 -0.734375 C 1.726562 -0.742188 1.894531 -0.816406 2.03125 -0.953125 L 2.0625 -0.96875 L 2.796875 -0.75 C 2.628906 -0.488281 2.457031 -0.304688 2.28125 -0.203125 C 2.082031 -0.0664062 1.832031 0 1.53125 0 C 1.132812 0 0.789062 -0.140625 0.5 -0.421875 C 0.207031 -0.703125 0.0625 -1.046875 0.0625 -1.453125 C 0.0625 -1.847656 0.203125 -2.191406 0.484375 -2.484375 C 0.765625 -2.773438 1.109375 -2.921875 1.515625 -2.921875 C 1.910156 -2.921875 2.253906 -2.78125 2.546875 -2.5 C 2.835938 -2.21875 2.984375 -1.875 2.984375 -1.46875 Z M 1.515625 -2.171875 C 1.316406 -2.171875 1.148438 -2.101562 1.015625 -1.96875 C 0.941406 -1.882812 0.890625 -1.804688 0.859375 -1.734375 L 2.1875 -1.734375 C 2.15625 -1.804688 2.101562 -1.882812 2.03125 -1.96875 C 1.882812 -2.101562 1.710938 -2.171875 1.515625 -2.171875 Z M 1.515625 -2.171875 "/></g></g></g><g fill="#000000" fill-opacity="1"><g transform="translate(76.218021, 5.615794)"><g><path d="M 0.96875 -2.484375 C 1.03125 -2.660156 1.132812 -2.785156 1.28125 -2.859375 C 1.4375 -2.929688 1.660156 -2.96875 1.953125 -2.96875 L 1.953125 -2.15625 C 1.660156 -2.15625 1.421875 -2.054688 1.234375 -1.859375 C 1.054688 -1.691406 0.96875 -1.503906 0.96875 -1.296875 L 0.96875 0 L 0.171875 0 L 0.171875 -2.921875 L 0.96875 -2.921875 Z M 0.96875 -2.484375 "/></g></g></g><g fill="#000000" fill-opacity="1"><g transform="translate(78.254199, 5.615794)"><g><path d="M 2.921875 -2.921875 L 1.765625 0.125 C 1.640625 0.425781 1.441406 0.664062 1.171875 0.84375 C 0.898438 1.03125 0.601562 1.117188 0.28125 1.109375 L 0.28125 0.3125 C 0.394531 0.3125 0.515625 0.285156 0.640625 0.234375 C 0.804688 0.160156 0.929688 0.0390625 1.015625 -0.125 L 1.171875 -0.5625 L 0.171875 -2.921875 L 1.046875 -2.921875 L 1.578125 -1.65625 L 2.046875 -2.921875 Z M 2.921875 -2.921875 "/></g></g></g><g fill="#000000" fill-opacity="1"><g transform="translate(81.021712, 5.615794)"><g><path d="M 1.515625 -2.921875 C 1.921875 -2.921875 2.265625 -2.78125 2.546875 -2.5 C 2.835938 -2.207031 2.984375 -1.863281 2.984375 -1.46875 C 2.984375 -1.0625 2.84375 -0.71875 2.5625 -0.4375 C 2.269531 -0.144531 1.925781 0 1.53125 0 C 1.125 0 0.78125 -0.140625 0.5 -0.421875 C 0.207031 -0.703125 0.0625 -1.046875 0.0625 -1.453125 C 0.0625 -1.859375 0.203125 -2.203125 0.484375 -2.484375 C 0.765625 -2.773438 1.109375 -2.921875 1.515625 -2.921875 Z M 2.03125 -0.953125 C 2.164062 -1.085938 2.234375 -1.257812 2.234375 -1.46875 C 2.234375 -1.664062 2.164062 -1.832031 2.03125 -1.96875 C 1.882812 -2.101562 1.710938 -2.171875 1.515625 -2.171875 C 1.316406 -2.171875 1.148438 -2.101562 1.015625 -1.96875 C 0.867188 -1.820312 0.796875 -1.648438 0.796875 -1.453125 C 0.796875 -1.253906 0.867188 -1.085938 1.015625 -0.953125 C 1.148438 -0.804688 1.320312 -0.734375 1.53125 -0.734375 C 1.726562 -0.742188 1.894531 -0.816406 2.03125 -0.953125 Z M 2.03125 -0.953125 "/></g></g></g><g fill="#000000" fill-opacity="1"><g transform="translate(84.061801, 5.615794)"><g><path d="M 1.625 -2.90625 C 2.039062 -2.9375 2.382812 -2.832031 2.65625 -2.59375 C 2.945312 -2.320312 3.09375 -1.941406 3.09375 -1.453125 L 3.09375 0 L 2.359375 0 L 2.359375 -1.4375 L 2.34375 -1.4375 L 2.34375 -1.453125 C 2.34375 -1.648438 2.273438 -1.820312 2.140625 -1.96875 C 1.992188 -2.101562 1.820312 -2.171875 1.625 -2.171875 C 1.425781 -2.160156 1.257812 -2.085938 1.125 -1.953125 C 0.976562 -1.804688 0.90625 -1.640625 0.90625 -1.453125 L 0.90625 0 L 0.109375 0 L 0.109375 -2.9375 L 0.90625 -2.9375 L 0.90625 -2.546875 C 1.082031 -2.765625 1.320312 -2.882812 1.625 -2.90625 Z M 1.625 -2.90625 "/></g></g></g><g fill="#000000" fill-opacity="1"><g transform="translate(87.266364, 5.615794)"><g><path d="M 2.984375 -1.328125 C 2.984375 -1.253906 2.984375 -1.207031 2.984375 -1.1875 L 0.84375 -1.203125 C 0.875 -1.109375 0.929688 -1.023438 1.015625 -0.953125 C 1.160156 -0.804688 1.332031 -0.734375 1.53125 -0.734375 C 1.726562 -0.742188 1.894531 -0.816406 2.03125 -0.953125 L 2.0625 -0.96875 L 2.796875 -0.75 C 2.628906 -0.488281 2.457031 -0.304688 2.28125 -0.203125 C 2.082031 -0.0664062 1.832031 0 1.53125 0 C 1.132812 0 0.789062 -0.140625 0.5 -0.421875 C 0.207031 -0.703125 0.0625 -1.046875 0.0625 -1.453125 C 0.0625 -1.847656 0.203125 -2.191406 0.484375 -2.484375 C 0.765625 -2.773438 1.109375 -2.921875 1.515625 -2.921875 C 1.910156 -2.921875 2.253906 -2.78125 2.546875 -2.5 C 2.835938 -2.21875 2.984375 -1.875 2.984375 -1.46875 Z M 1.515625 -2.171875 C 1.316406 -2.171875 1.148438 -2.101562 1.015625 -1.96875 C 0.941406 -1.882812 0.890625 -1.804688 0.859375 -1.734375 L 2.1875 -1.734375 C 2.15625 -1.804688 2.101562 -1.882812 2.03125 -1.96875 C 1.882812 -2.101562 1.710938 -2.171875 1.515625 -2.171875 Z M 1.515625 -2.171875 "/></g></g></g></g></g></g></svg>